<?xml version="1.0" encoding="UTF-8" standalone="no"?>
<!DOCTYPE svg PUBLIC "-//W3C//DTD SVG 1.1//EN"
 "http://www.w3.org/Graphics/SVG/1.1/DTD/svg11.dtd">
<!-- Generated by graphviz version 2.36.0 (20140111.2315)
 -->
<!-- Title: util::Vector2::Compare Pages: 1 -->
<svg width="244pt" height="66pt"
 viewBox="0.00 0.00 244.00 66.00" xmlns="http://www.w3.org/2000/svg" xmlns:xlink="http://www.w3.org/1999/xlink">
<g id="graph0" class="graph" transform="scale(1 1) rotate(0) translate(4 62)">
<title>util::Vector2::Compare</title>
<polygon fill="white" stroke="none" points="-4,4 -4,-62 240,-62 240,4 -4,4"/>
<!-- Node1 -->
<g id="node1" class="node"><title>Node1</title>
<polygon fill="#bfbfbf" stroke="black" points="0.5,-19.5 0.5,-38.5 115.5,-38.5 115.5,-19.5 0.5,-19.5"/>
<text text-anchor="middle" x="58" y="-26.5" font-family="Helvetica,sans-Serif" font-size="10.00">util::Vector2::Compare</text>
</g>
<!-- Node2 -->
<g id="node2" class="node"><title>Node2</title>
<g id="a_node2"><a xlink:href="namespaceutil.html#a558a2ee5ae1e21cb31734e049e873ad8" target="_top" xlink:title="util::operator==">
<polygon fill="white" stroke="black" points="152.5,-38.5 152.5,-57.5 235.5,-57.5 235.5,-38.5 152.5,-38.5"/>
<text text-anchor="middle" x="194" y="-45.5" font-family="Helvetica,sans-Serif" font-size="10.00">util::operator==</text>
</a>
</g>
</g>
<!-- Node1&#45;&gt;Node2 -->
<g id="edge1" class="edge"><title>Node1&#45;&gt;Node2</title>
<path fill="none" stroke="midnightblue" d="M125.962,-38.4947C134.969,-39.7718 143.977,-41.049 152.335,-42.2341"/>
<polygon fill="midnightblue" stroke="midnightblue" points="126.22,-34.9963 115.828,-37.0577 125.238,-41.927 126.22,-34.9963"/>
</g>
<!-- Node3 -->
<g id="node3" class="node"><title>Node3</title>
<g id="a_node3"><a xlink:href="namespaceutil.html#ae8e2c73a73973d265599dd4f53467fcb" target="_top" xlink:title="util::operator!=">
<polygon fill="white" stroke="black" points="154,-0.5 154,-19.5 234,-19.5 234,-0.5 154,-0.5"/>
<text text-anchor="middle" x="194" y="-7.5" font-family="Helvetica,sans-Serif" font-size="10.00">util::operator!=</text>
</a>
</g>
</g>
<!-- Node1&#45;&gt;Node3 -->
<g id="edge2" class="edge"><title>Node1&#45;&gt;Node3</title>
<path fill="none" stroke="midnightblue" d="M125.827,-19.5245C135.456,-18.1592 145.089,-16.7933 153.932,-15.5395"/>
<polygon fill="midnightblue" stroke="midnightblue" points="125.238,-16.073 115.828,-20.9423 126.22,-23.0037 125.238,-16.073"/>
</g>
</g>
</svg>
