<?xml version="1.0" encoding="UTF-8" standalone="no"?>
<!DOCTYPE svg PUBLIC "-//W3C//DTD SVG 1.1//EN"
 "http://www.w3.org/Graphics/SVG/1.1/DTD/svg11.dtd">
<!-- Generated by graphviz version 2.36.0 (20140111.2315)
 -->
<!-- Title: util::String::operator= Pages: 1 -->
<svg width="486pt" height="104pt"
 viewBox="0.00 0.00 486.00 104.00" xmlns="http://www.w3.org/2000/svg" xmlns:xlink="http://www.w3.org/1999/xlink">
<g id="graph0" class="graph" transform="scale(1 1) rotate(0) translate(4 100)">
<title>util::String::operator=</title>
<polygon fill="white" stroke="none" points="-4,4 -4,-100 482,-100 482,4 -4,4"/>
<!-- Node1 -->
<g id="node1" class="node"><title>Node1</title>
<polygon fill="#bfbfbf" stroke="black" points="0,-38.5 0,-57.5 108,-57.5 108,-38.5 0,-38.5"/>
<text text-anchor="middle" x="54" y="-45.5" font-family="Helvetica,sans-Serif" font-size="10.00">util::String::operator=</text>
</g>
<!-- Node2 -->
<g id="node2" class="node"><title>Node2</title>
<g id="a_node2"><a xlink:href="classutil_1_1String.html#a41dbcd32aba6022654420f1ca8634e52" target="_top" xlink:title="Ensures there is enough memory. ">
<polygon fill="white" stroke="black" points="144.5,-76.5 144.5,-95.5 243.5,-95.5 243.5,-76.5 144.5,-76.5"/>
<text text-anchor="middle" x="194" y="-83.5" font-family="Helvetica,sans-Serif" font-size="10.00">util::String::Enalloc</text>
</a>
</g>
</g>
<!-- Node1&#45;&gt;Node2 -->
<g id="edge1" class="edge"><title>Node1&#45;&gt;Node2</title>
<path fill="none" stroke="midnightblue" d="M89.8232,-57.589C107.638,-62.4944 129.518,-68.5196 148.539,-73.7571"/>
<polygon fill="midnightblue" stroke="midnightblue" points="147.618,-77.1336 158.188,-76.4141 149.476,-70.3848 147.618,-77.1336"/>
</g>
<!-- Node4 -->
<g id="node4" class="node"><title>Node4</title>
<g id="a_node4"><a xlink:href="namespaceutil.html#ab5b1c6f07bee20ecae968d0523857c0a" target="_top" xlink:title="Replacement for strcpy. ">
<polygon fill="white" stroke="black" points="416,-57.5 416,-76.5 478,-76.5 478,-57.5 416,-57.5"/>
<text text-anchor="middle" x="447" y="-64.5" font-family="Helvetica,sans-Serif" font-size="10.00">util::strcpy</text>
</a>
</g>
</g>
<!-- Node1&#45;&gt;Node4 -->
<g id="edge5" class="edge"><title>Node1&#45;&gt;Node4</title>
<path fill="none" stroke="midnightblue" d="M108.139,-50.5822C187.184,-54.4233 334.046,-61.5598 405.225,-65.0186"/>
<polygon fill="midnightblue" stroke="midnightblue" points="405.411,-68.5317 415.569,-65.5213 405.751,-61.5399 405.411,-68.5317"/>
</g>
<!-- Node5 -->
<g id="node5" class="node"><title>Node5</title>
<g id="a_node5"><a xlink:href="namespaceutil.html#ac9119bdb7fd3110bd304d77460a86ed0" target="_top" xlink:title="Replacement for strlen. ">
<polygon fill="white" stroke="black" points="164.5,-0.5 164.5,-19.5 223.5,-19.5 223.5,-0.5 164.5,-0.5"/>
<text text-anchor="middle" x="194" y="-7.5" font-family="Helvetica,sans-Serif" font-size="10.00">util::strlen</text>
</a>
</g>
</g>
<!-- Node1&#45;&gt;Node5 -->
<g id="edge4" class="edge"><title>Node1&#45;&gt;Node5</title>
<path fill="none" stroke="midnightblue" d="M89.8232,-38.411C109.495,-32.994 134.126,-26.2117 154.388,-20.6323"/>
<polygon fill="midnightblue" stroke="midnightblue" points="155.527,-23.9491 164.239,-17.9198 153.668,-17.2003 155.527,-23.9491"/>
</g>
<!-- Node3 -->
<g id="node3" class="node"><title>Node3</title>
<g id="a_node3"><a xlink:href="classutil_1_1String.html#ae1530f1c2413c3fca5a293d7d739d27e" target="_top" xlink:title="Reallocates buffer memory. ">
<polygon fill="white" stroke="black" points="280,-76.5 280,-95.5 380,-95.5 380,-76.5 280,-76.5"/>
<text text-anchor="middle" x="330" y="-83.5" font-family="Helvetica,sans-Serif" font-size="10.00">util::String::Realloc</text>
</a>
</g>
</g>
<!-- Node2&#45;&gt;Node3 -->
<g id="edge2" class="edge"><title>Node2&#45;&gt;Node3</title>
<path fill="none" stroke="midnightblue" d="M243.756,-86C252.147,-86 260.95,-86 269.584,-86"/>
<polygon fill="midnightblue" stroke="midnightblue" points="269.606,-89.5001 279.606,-86 269.606,-82.5001 269.606,-89.5001"/>
</g>
<!-- Node3&#45;&gt;Node4 -->
<g id="edge3" class="edge"><title>Node3&#45;&gt;Node4</title>
<path fill="none" stroke="midnightblue" d="M380.104,-77.8872C388.603,-76.483 397.352,-75.0375 405.587,-73.6769"/>
<polygon fill="midnightblue" stroke="midnightblue" points="406.39,-77.0919 415.685,-72.0085 405.248,-70.1855 406.39,-77.0919"/>
</g>
</g>
</svg>
