<?xml version="1.0" encoding="UTF-8" standalone="no"?>
<!DOCTYPE svg PUBLIC "-//W3C//DTD SVG 1.1//EN"
 "http://www.w3.org/Graphics/SVG/1.1/DTD/svg11.dtd">
<!-- Generated by graphviz version 2.36.0 (20140111.2315)
 -->
<!-- Title: util::String::Realloc Pages: 1 -->
<svg width="388pt" height="66pt"
 viewBox="0.00 0.00 388.00 66.00" xmlns="http://www.w3.org/2000/svg" xmlns:xlink="http://www.w3.org/1999/xlink">
<g id="graph0" class="graph" transform="scale(1 1) rotate(0) translate(4 62)">
<title>util::String::Realloc</title>
<polygon fill="white" stroke="none" points="-4,4 -4,-62 384,-62 384,4 -4,4"/>
<!-- Node1 -->
<g id="node1" class="node"><title>Node1</title>
<polygon fill="#bfbfbf" stroke="black" points="0,-19.5 0,-38.5 100,-38.5 100,-19.5 0,-19.5"/>
<text text-anchor="middle" x="50" y="-26.5" font-family="Helvetica,sans-Serif" font-size="10.00">util::String::Realloc</text>
</g>
<!-- Node2 -->
<g id="node2" class="node"><title>Node2</title>
<g id="a_node2"><a xlink:href="classutil_1_1String.html#a41dbcd32aba6022654420f1ca8634e52" target="_top" xlink:title="Ensures there is enough memory. ">
<polygon fill="white" stroke="black" points="136.5,-19.5 136.5,-38.5 235.5,-38.5 235.5,-19.5 136.5,-19.5"/>
<text text-anchor="middle" x="186" y="-26.5" font-family="Helvetica,sans-Serif" font-size="10.00">util::String::Enalloc</text>
</a>
</g>
</g>
<!-- Node1&#45;&gt;Node2 -->
<g id="edge1" class="edge"><title>Node1&#45;&gt;Node2</title>
<path fill="none" stroke="midnightblue" d="M110.247,-29C118.96,-29 127.85,-29 136.318,-29"/>
<polygon fill="midnightblue" stroke="midnightblue" points="110.136,-25.5001 100.136,-29 110.136,-32.5001 110.136,-25.5001"/>
</g>
<!-- Node3 -->
<g id="node3" class="node"><title>Node3</title>
<g id="a_node3"><a xlink:href="classutil_1_1String.html#a8ff64e5634b50aee3727b1a1f2c9f4df" target="_top" xlink:title="Copy constructor. ">
<polygon fill="white" stroke="black" points="280,-38.5 280,-57.5 372,-57.5 372,-38.5 280,-38.5"/>
<text text-anchor="middle" x="326" y="-45.5" font-family="Helvetica,sans-Serif" font-size="10.00">util::String::String</text>
</a>
</g>
</g>
<!-- Node2&#45;&gt;Node3 -->
<g id="edge2" class="edge"><title>Node2&#45;&gt;Node3</title>
<path fill="none" stroke="midnightblue" d="M245.868,-37.105C257.142,-38.6572 268.785,-40.2602 279.557,-41.7433"/>
<polygon fill="midnightblue" stroke="midnightblue" points="246.038,-33.5954 235.654,-35.6987 245.083,-40.53 246.038,-33.5954"/>
</g>
<!-- Node4 -->
<g id="node4" class="node"><title>Node4</title>
<g id="a_node4"><a xlink:href="classutil_1_1String.html#a818c896e57e8bda208b81a9dd3cb5f9c" target="_top" xlink:title="Assigns value from String. ">
<polygon fill="white" stroke="black" points="272,-0.5 272,-19.5 380,-19.5 380,-0.5 272,-0.5"/>
<text text-anchor="middle" x="326" y="-7.5" font-family="Helvetica,sans-Serif" font-size="10.00">util::String::operator=</text>
</a>
</g>
</g>
<!-- Node2&#45;&gt;Node4 -->
<g id="edge3" class="edge"><title>Node2&#45;&gt;Node4</title>
<path fill="none" stroke="midnightblue" d="M245.643,-20.926C254.267,-19.7386 263.112,-18.5208 271.622,-17.3491"/>
<polygon fill="midnightblue" stroke="midnightblue" points="245.083,-17.47 235.654,-22.3013 246.038,-24.4046 245.083,-17.47"/>
</g>
</g>
</svg>
