<?xml version="1.0" encoding="UTF-8" standalone="no"?>
<!DOCTYPE svg PUBLIC "-//W3C//DTD SVG 1.1//EN"
 "http://www.w3.org/Graphics/SVG/1.1/DTD/svg11.dtd">
<!-- Generated by graphviz version 2.36.0 (20140111.2315)
 -->
<!-- Title: util::String::Enalloc Pages: 1 -->
<svg width="366pt" height="104pt"
 viewBox="0.00 0.00 366.00 104.00" xmlns="http://www.w3.org/2000/svg" xmlns:xlink="http://www.w3.org/1999/xlink">
<g id="graph0" class="graph" transform="scale(1 1) rotate(0) translate(4 100)">
<title>util::String::Enalloc</title>
<polygon fill="white" stroke="none" points="-4,4 -4,-100 362,-100 362,4 -4,4"/>
<!-- Node1 -->
<g id="node1" class="node"><title>Node1</title>
<polygon fill="#bfbfbf" stroke="black" points="0.5,-38.5 0.5,-57.5 99.5,-57.5 99.5,-38.5 0.5,-38.5"/>
<text text-anchor="middle" x="50" y="-45.5" font-family="Helvetica,sans-Serif" font-size="10.00">util::String::Enalloc</text>
</g>
<!-- Node2 -->
<g id="node2" class="node"><title>Node2</title>
<g id="a_node2"><a xlink:href="classutil_1_1String.html#aa1088c473f0e2a7f3811199339e9aaf9" target="_top" xlink:title="Copy constructor from String. ">
<polygon fill="white" stroke="black" points="144,-76.5 144,-95.5 236,-95.5 236,-76.5 144,-76.5"/>
<text text-anchor="middle" x="190" y="-83.5" font-family="Helvetica,sans-Serif" font-size="10.00">util::String::String</text>
</a>
</g>
</g>
<!-- Node1&#45;&gt;Node2 -->
<g id="edge1" class="edge"><title>Node1&#45;&gt;Node2</title>
<path fill="none" stroke="midnightblue" d="M95.473,-60.2462C114.495,-65.484 136.375,-71.5091 154.188,-76.4141"/>
<polygon fill="midnightblue" stroke="midnightblue" points="96.3936,-56.8695 85.8232,-57.589 94.5352,-63.6183 96.3936,-56.8695"/>
</g>
<!-- Node3 -->
<g id="node3" class="node"><title>Node3</title>
<g id="a_node3"><a xlink:href="classutil_1_1String.html#af6e4eac45ea96302e576fe299bc44167" target="_top" xlink:title="Appends String. ">
<polygon fill="white" stroke="black" points="140,-38.5 140,-57.5 240,-57.5 240,-38.5 140,-38.5"/>
<text text-anchor="middle" x="190" y="-45.5" font-family="Helvetica,sans-Serif" font-size="10.00">util::String::Append</text>
</a>
</g>
</g>
<!-- Node1&#45;&gt;Node3 -->
<g id="edge2" class="edge"><title>Node1&#45;&gt;Node3</title>
<path fill="none" stroke="midnightblue" d="M109.913,-48C119.892,-48 130.159,-48 139.854,-48"/>
<polygon fill="midnightblue" stroke="midnightblue" points="109.654,-44.5001 99.6536,-48 109.654,-51.5001 109.654,-44.5001"/>
</g>
<!-- Node5 -->
<g id="node5" class="node"><title>Node5</title>
<g id="a_node5"><a xlink:href="classutil_1_1String.html#adad563cff8a9d78b8a2854c644900e44" target="_top" xlink:title="Assignment operator from String. ">
<polygon fill="white" stroke="black" points="136,-0.5 136,-19.5 244,-19.5 244,-0.5 136,-0.5"/>
<text text-anchor="middle" x="190" y="-7.5" font-family="Helvetica,sans-Serif" font-size="10.00">util::String::operator=</text>
</a>
</g>
</g>
<!-- Node1&#45;&gt;Node5 -->
<g id="edge4" class="edge"><title>Node1&#45;&gt;Node5</title>
<path fill="none" stroke="midnightblue" d="M95.473,-35.7538C114.495,-30.516 136.375,-24.4909 154.188,-19.5859"/>
<polygon fill="midnightblue" stroke="midnightblue" points="94.5352,-32.3817 85.8232,-38.411 96.3936,-39.1305 94.5352,-32.3817"/>
</g>
<!-- Node4 -->
<g id="node4" class="node"><title>Node4</title>
<g id="a_node4"><a xlink:href="namespaceutil.html#ac5344b02cd5f4e956a3a8a67e02dc5b8" target="_top" xlink:title="util::operator+">
<polygon fill="white" stroke="black" points="280.5,-38.5 280.5,-57.5 357.5,-57.5 357.5,-38.5 280.5,-38.5"/>
<text text-anchor="middle" x="319" y="-45.5" font-family="Helvetica,sans-Serif" font-size="10.00">util::operator+</text>
</a>
</g>
</g>
<!-- Node3&#45;&gt;Node4 -->
<g id="edge3" class="edge"><title>Node3&#45;&gt;Node4</title>
<path fill="none" stroke="midnightblue" d="M250.282,-48C260.552,-48 270.97,-48 280.454,-48"/>
<polygon fill="midnightblue" stroke="midnightblue" points="250.102,-44.5001 240.102,-48 250.101,-51.5001 250.102,-44.5001"/>
</g>
</g>
</svg>
