<?xml version="1.0" encoding="UTF-8" standalone="no"?>
<!DOCTYPE svg PUBLIC "-//W3C//DTD SVG 1.1//EN"
 "http://www.w3.org/Graphics/SVG/1.1/DTD/svg11.dtd">
<!-- Generated by graphviz version 2.36.0 (20140111.2315)
 -->
<!-- Title: util::String::operator+= Pages: 1 -->
<svg width="628pt" height="66pt"
 viewBox="0.00 0.00 628.00 66.00" xmlns="http://www.w3.org/2000/svg" xmlns:xlink="http://www.w3.org/1999/xlink">
<g id="graph0" class="graph" transform="scale(1 1) rotate(0) translate(4 62)">
<title>util::String::operator+=</title>
<polygon fill="white" stroke="none" points="-4,4 -4,-62 624,-62 624,4 -4,4"/>
<!-- Node1 -->
<g id="node1" class="node"><title>Node1</title>
<polygon fill="#bfbfbf" stroke="black" points="0,-19.5 0,-38.5 114,-38.5 114,-19.5 0,-19.5"/>
<text text-anchor="middle" x="57" y="-26.5" font-family="Helvetica,sans-Serif" font-size="10.00">util::String::operator+=</text>
</g>
<!-- Node2 -->
<g id="node2" class="node"><title>Node2</title>
<g id="a_node2"><a xlink:href="classutil_1_1String.html#af6e4eac45ea96302e576fe299bc44167" target="_top" xlink:title="Appends String. ">
<polygon fill="white" stroke="black" points="150,-19.5 150,-38.5 250,-38.5 250,-19.5 150,-19.5"/>
<text text-anchor="middle" x="200" y="-26.5" font-family="Helvetica,sans-Serif" font-size="10.00">util::String::Append</text>
</a>
</g>
</g>
<!-- Node1&#45;&gt;Node2 -->
<g id="edge1" class="edge"><title>Node1&#45;&gt;Node2</title>
<path fill="none" stroke="midnightblue" d="M114.132,-29C122.54,-29 131.233,-29 139.704,-29"/>
<polygon fill="midnightblue" stroke="midnightblue" points="139.894,-32.5001 149.894,-29 139.894,-25.5001 139.894,-32.5001"/>
</g>
<!-- Node3 -->
<g id="node3" class="node"><title>Node3</title>
<g id="a_node3"><a xlink:href="classutil_1_1String.html#a84b25efb436ed6c47331530db7a68dad" target="_top" xlink:title="Returns length of String. ">
<polygon fill="white" stroke="black" points="288,-38.5 288,-57.5 384,-57.5 384,-38.5 288,-38.5"/>
<text text-anchor="middle" x="336" y="-45.5" font-family="Helvetica,sans-Serif" font-size="10.00">util::String::Length</text>
</a>
</g>
</g>
<!-- Node2&#45;&gt;Node3 -->
<g id="edge2" class="edge"><title>Node2&#45;&gt;Node3</title>
<path fill="none" stroke="midnightblue" d="M250.136,-35.967C259.036,-37.229 268.39,-38.5553 277.505,-39.8477"/>
<polygon fill="midnightblue" stroke="midnightblue" points="277.264,-43.3485 287.656,-41.2871 278.247,-36.4178 277.264,-43.3485"/>
</g>
<!-- Node4 -->
<g id="node4" class="node"><title>Node4</title>
<g id="a_node4"><a xlink:href="classutil_1_1String.html#ad55e73410afb6a799ec70ab60a309a2b" target="_top" xlink:title="Ensures there is enough memory. ">
<polygon fill="white" stroke="black" points="286.5,-0.5 286.5,-19.5 385.5,-19.5 385.5,-0.5 286.5,-0.5"/>
<text text-anchor="middle" x="336" y="-7.5" font-family="Helvetica,sans-Serif" font-size="10.00">util::String::Enalloc</text>
</a>
</g>
</g>
<!-- Node2&#45;&gt;Node4 -->
<g id="edge3" class="edge"><title>Node2&#45;&gt;Node4</title>
<path fill="none" stroke="midnightblue" d="M250.136,-22.033C258.618,-20.8302 267.513,-19.5691 276.219,-18.3346"/>
<polygon fill="midnightblue" stroke="midnightblue" points="276.908,-21.772 286.318,-16.9027 275.926,-14.8413 276.908,-21.772"/>
</g>
<!-- Node5 -->
<g id="node5" class="node"><title>Node5</title>
<g id="a_node5"><a xlink:href="classutil_1_1String.html#a5208e787bb3b5608eebf0cb2eb94a29a" target="_top" xlink:title="Reallocates buffer memory. ">
<polygon fill="white" stroke="black" points="422,-0.5 422,-19.5 522,-19.5 522,-0.5 422,-0.5"/>
<text text-anchor="middle" x="472" y="-7.5" font-family="Helvetica,sans-Serif" font-size="10.00">util::String::Realloc</text>
</a>
</g>
</g>
<!-- Node4&#45;&gt;Node5 -->
<g id="edge4" class="edge"><title>Node4&#45;&gt;Node5</title>
<path fill="none" stroke="midnightblue" d="M385.756,-10C394.147,-10 402.95,-10 411.584,-10"/>
<polygon fill="midnightblue" stroke="midnightblue" points="411.606,-13.5001 421.606,-10 411.606,-6.5001 411.606,-13.5001"/>
</g>
<!-- Node6 -->
<g id="node6" class="node"><title>Node6</title>
<g id="a_node6"><a xlink:href="namespaceutil.html#ab5b1c6f07bee20ecae968d0523857c0a" target="_top" xlink:title="Replacement for strcpy. ">
<polygon fill="white" stroke="black" points="558,-0.5 558,-19.5 620,-19.5 620,-0.5 558,-0.5"/>
<text text-anchor="middle" x="589" y="-7.5" font-family="Helvetica,sans-Serif" font-size="10.00">util::strcpy</text>
</a>
</g>
</g>
<!-- Node5&#45;&gt;Node6 -->
<g id="edge5" class="edge"><title>Node5&#45;&gt;Node6</title>
<path fill="none" stroke="midnightblue" d="M522.104,-10C530.603,-10 539.352,-10 547.587,-10"/>
<polygon fill="midnightblue" stroke="midnightblue" points="547.685,-13.5001 557.685,-10 547.685,-6.5001 547.685,-13.5001"/>
</g>
</g>
</svg>
