<?xml version="1.0" encoding="UTF-8" standalone="no"?>
<!DOCTYPE svg PUBLIC "-//W3C//DTD SVG 1.1//EN"
 "http://www.w3.org/Graphics/SVG/1.1/DTD/svg11.dtd">
<!-- Generated by graphviz version 2.36.0 (20140111.2315)
 -->
<!-- Title: util::String::Append Pages: 1 -->
<svg width="258pt" height="66pt"
 viewBox="0.00 0.00 258.00 66.00" xmlns="http://www.w3.org/2000/svg" xmlns:xlink="http://www.w3.org/1999/xlink">
<g id="graph0" class="graph" transform="scale(1 1) rotate(0) translate(4 62)">
<title>util::String::Append</title>
<polygon fill="white" stroke="none" points="-4,4 -4,-62 254,-62 254,4 -4,4"/>
<!-- Node1 -->
<g id="node1" class="node"><title>Node1</title>
<polygon fill="#bfbfbf" stroke="black" points="0,-19.5 0,-38.5 100,-38.5 100,-19.5 0,-19.5"/>
<text text-anchor="middle" x="50" y="-26.5" font-family="Helvetica,sans-Serif" font-size="10.00">util::String::Append</text>
</g>
<!-- Node2 -->
<g id="node2" class="node"><title>Node2</title>
<g id="a_node2"><a xlink:href="classutil_1_1String.html#ae994dd6990d30ab95e288cb9664385c2" target="_top" xlink:title="Concatenation operator. ">
<polygon fill="white" stroke="black" points="136,-38.5 136,-57.5 250,-57.5 250,-38.5 136,-38.5"/>
<text text-anchor="middle" x="193" y="-45.5" font-family="Helvetica,sans-Serif" font-size="10.00">util::String::operator+=</text>
</a>
</g>
</g>
<!-- Node1&#45;&gt;Node2 -->
<g id="edge1" class="edge"><title>Node1&#45;&gt;Node2</title>
<path fill="none" stroke="midnightblue" d="M110.404,-37.0048C118.79,-38.1349 127.391,-39.2938 135.716,-40.4156"/>
<polygon fill="midnightblue" stroke="midnightblue" points="110.693,-33.5122 100.315,-35.6453 109.758,-40.4495 110.693,-33.5122"/>
</g>
<!-- Node3 -->
<g id="node3" class="node"><title>Node3</title>
<g id="a_node3"><a xlink:href="namespaceutil.html#ac5344b02cd5f4e956a3a8a67e02dc5b8" target="_top" xlink:title="util::operator+">
<polygon fill="white" stroke="black" points="154.5,-0.5 154.5,-19.5 231.5,-19.5 231.5,-0.5 154.5,-0.5"/>
<text text-anchor="middle" x="193" y="-7.5" font-family="Helvetica,sans-Serif" font-size="10.00">util::operator+</text>
</a>
</g>
</g>
<!-- Node1&#45;&gt;Node3 -->
<g id="edge2" class="edge"><title>Node1&#45;&gt;Node3</title>
<path fill="none" stroke="midnightblue" d="M110.497,-20.9827C125.408,-18.9734 140.992,-16.8734 154.492,-15.0542"/>
<polygon fill="midnightblue" stroke="midnightblue" points="109.758,-17.5505 100.315,-22.3547 110.693,-24.4878 109.758,-17.5505"/>
</g>
</g>
</svg>
