<?xml version="1.0" encoding="UTF-8" standalone="no"?>
<!DOCTYPE svg PUBLIC "-//W3C//DTD SVG 1.1//EN"
 "http://www.w3.org/Graphics/SVG/1.1/DTD/svg11.dtd">
<!-- Generated by graphviz version 2.36.0 (20140111.2315)
 -->
<!-- Title: util::String::String Pages: 1 -->
<svg width="470pt" height="66pt"
 viewBox="0.00 0.00 470.00 66.00" xmlns="http://www.w3.org/2000/svg" xmlns:xlink="http://www.w3.org/1999/xlink">
<g id="graph0" class="graph" transform="scale(1 1) rotate(0) translate(4 62)">
<title>util::String::String</title>
<polygon fill="white" stroke="none" points="-4,4 -4,-62 466,-62 466,4 -4,4"/>
<!-- Node1 -->
<g id="node1" class="node"><title>Node1</title>
<polygon fill="#bfbfbf" stroke="black" points="0,-19.5 0,-38.5 92,-38.5 92,-19.5 0,-19.5"/>
<text text-anchor="middle" x="46" y="-26.5" font-family="Helvetica,sans-Serif" font-size="10.00">util::String::String</text>
</g>
<!-- Node2 -->
<g id="node2" class="node"><title>Node2</title>
<g id="a_node2"><a xlink:href="classutil_1_1String.html#abe05cfbfb31ab7703efe73e8c59d3113" target="_top" xlink:title="Initializes private member variables. ">
<polygon fill="white" stroke="black" points="138,-38.5 138,-57.5 218,-57.5 218,-38.5 138,-38.5"/>
<text text-anchor="middle" x="178" y="-45.5" font-family="Helvetica,sans-Serif" font-size="10.00">util::String::Init</text>
</a>
</g>
</g>
<!-- Node1&#45;&gt;Node2 -->
<g id="edge1" class="edge"><title>Node1&#45;&gt;Node2</title>
<path fill="none" stroke="midnightblue" d="M92.1029,-35.592C103.56,-37.2665 115.93,-39.0744 127.589,-40.7784"/>
<polygon fill="midnightblue" stroke="midnightblue" points="127.21,-44.2601 137.611,-42.2432 128.223,-37.3337 127.21,-44.2601"/>
</g>
<!-- Node3 -->
<g id="node3" class="node"><title>Node3</title>
<g id="a_node3"><a xlink:href="classutil_1_1String.html#ad55e73410afb6a799ec70ab60a309a2b" target="_top" xlink:title="Ensures there is enough memory. ">
<polygon fill="white" stroke="black" points="128.5,-0.5 128.5,-19.5 227.5,-19.5 227.5,-0.5 128.5,-0.5"/>
<text text-anchor="middle" x="178" y="-7.5" font-family="Helvetica,sans-Serif" font-size="10.00">util::String::Enalloc</text>
</a>
</g>
</g>
<!-- Node1&#45;&gt;Node3 -->
<g id="edge2" class="edge"><title>Node1&#45;&gt;Node3</title>
<path fill="none" stroke="midnightblue" d="M92.1029,-22.408C100.628,-21.1621 109.658,-19.8422 118.525,-18.5463"/>
<polygon fill="midnightblue" stroke="midnightblue" points="119.042,-22.008 128.431,-17.0985 118.03,-15.0816 119.042,-22.008"/>
</g>
<!-- Node4 -->
<g id="node4" class="node"><title>Node4</title>
<g id="a_node4"><a xlink:href="classutil_1_1String.html#a5208e787bb3b5608eebf0cb2eb94a29a" target="_top" xlink:title="Reallocates buffer memory. ">
<polygon fill="white" stroke="black" points="264,-0.5 264,-19.5 364,-19.5 364,-0.5 264,-0.5"/>
<text text-anchor="middle" x="314" y="-7.5" font-family="Helvetica,sans-Serif" font-size="10.00">util::String::Realloc</text>
</a>
</g>
</g>
<!-- Node3&#45;&gt;Node4 -->
<g id="edge3" class="edge"><title>Node3&#45;&gt;Node4</title>
<path fill="none" stroke="midnightblue" d="M227.756,-10C236.147,-10 244.95,-10 253.584,-10"/>
<polygon fill="midnightblue" stroke="midnightblue" points="253.606,-13.5001 263.606,-10 253.606,-6.5001 253.606,-13.5001"/>
</g>
<!-- Node5 -->
<g id="node5" class="node"><title>Node5</title>
<g id="a_node5"><a xlink:href="namespaceutil.html#ab5b1c6f07bee20ecae968d0523857c0a" target="_top" xlink:title="Replacement for strcpy. ">
<polygon fill="white" stroke="black" points="400,-0.5 400,-19.5 462,-19.5 462,-0.5 400,-0.5"/>
<text text-anchor="middle" x="431" y="-7.5" font-family="Helvetica,sans-Serif" font-size="10.00">util::strcpy</text>
</a>
</g>
</g>
<!-- Node4&#45;&gt;Node5 -->
<g id="edge4" class="edge"><title>Node4&#45;&gt;Node5</title>
<path fill="none" stroke="midnightblue" d="M364.104,-10C372.603,-10 381.352,-10 389.587,-10"/>
<polygon fill="midnightblue" stroke="midnightblue" points="389.685,-13.5001 399.685,-10 389.685,-6.5001 389.685,-13.5001"/>
</g>
</g>
</svg>
