<?xml version="1.0" encoding="UTF-8" standalone="no"?>
<!DOCTYPE svg PUBLIC "-//W3C//DTD SVG 1.1//EN"
 "http://www.w3.org/Graphics/SVG/1.1/DTD/svg11.dtd">
<!-- Generated by graphviz version 2.36.0 (20140111.2315)
 -->
<!-- Title: util::String::Enalloc Pages: 1 -->
<svg width="252pt" height="66pt"
 viewBox="0.00 0.00 252.00 66.00" xmlns="http://www.w3.org/2000/svg" xmlns:xlink="http://www.w3.org/1999/xlink">
<g id="graph0" class="graph" transform="scale(1 1) rotate(0) translate(4 62)">
<title>util::String::Enalloc</title>
<polygon fill="white" stroke="none" points="-4,4 -4,-62 248,-62 248,4 -4,4"/>
<!-- Node1 -->
<g id="node1" class="node"><title>Node1</title>
<polygon fill="#bfbfbf" stroke="black" points="0.5,-19.5 0.5,-38.5 99.5,-38.5 99.5,-19.5 0.5,-19.5"/>
<text text-anchor="middle" x="50" y="-26.5" font-family="Helvetica,sans-Serif" font-size="10.00">util::String::Enalloc</text>
</g>
<!-- Node2 -->
<g id="node2" class="node"><title>Node2</title>
<g id="a_node2"><a xlink:href="classutil_1_1String.html#abe3ad48188e112620c1eb8414a4a071e" target="_top" xlink:title="Copy constructor. ">
<polygon fill="white" stroke="black" points="144,-38.5 144,-57.5 236,-57.5 236,-38.5 144,-38.5"/>
<text text-anchor="middle" x="190" y="-45.5" font-family="Helvetica,sans-Serif" font-size="10.00">util::String::String</text>
</a>
</g>
</g>
<!-- Node1&#45;&gt;Node2 -->
<g id="edge1" class="edge"><title>Node1&#45;&gt;Node2</title>
<path fill="none" stroke="midnightblue" d="M109.868,-37.105C121.142,-38.6572 132.785,-40.2602 143.557,-41.7433"/>
<polygon fill="midnightblue" stroke="midnightblue" points="110.038,-33.5954 99.6536,-35.6987 109.083,-40.53 110.038,-33.5954"/>
</g>
<!-- Node3 -->
<g id="node3" class="node"><title>Node3</title>
<g id="a_node3"><a xlink:href="classutil_1_1String.html#adad563cff8a9d78b8a2854c644900e44" target="_top" xlink:title="Assigns value from String. ">
<polygon fill="white" stroke="black" points="136,-0.5 136,-19.5 244,-19.5 244,-0.5 136,-0.5"/>
<text text-anchor="middle" x="190" y="-7.5" font-family="Helvetica,sans-Serif" font-size="10.00">util::String::operator=</text>
</a>
</g>
</g>
<!-- Node1&#45;&gt;Node3 -->
<g id="edge2" class="edge"><title>Node1&#45;&gt;Node3</title>
<path fill="none" stroke="midnightblue" d="M109.643,-20.926C118.267,-19.7386 127.112,-18.5208 135.622,-17.3491"/>
<polygon fill="midnightblue" stroke="midnightblue" points="109.083,-17.47 99.6536,-22.3013 110.038,-24.4046 109.083,-17.47"/>
</g>
</g>
</svg>
