<?xml version="1.0" encoding="UTF-8" standalone="no"?>
<!DOCTYPE svg PUBLIC "-//W3C//DTD SVG 1.1//EN"
 "http://www.w3.org/Graphics/SVG/1.1/DTD/svg11.dtd">
<!-- Generated by graphviz version 2.36.0 (20140111.2315)
 -->
<!-- Title: util::String::Length Pages: 1 -->
<svg width="248pt" height="66pt"
 viewBox="0.00 0.00 248.00 66.00" xmlns="http://www.w3.org/2000/svg" xmlns:xlink="http://www.w3.org/1999/xlink">
<g id="graph0" class="graph" transform="scale(1 1) rotate(0) translate(4 62)">
<title>util::String::Length</title>
<polygon fill="white" stroke="none" points="-4,4 -4,-62 244,-62 244,4 -4,4"/>
<!-- Node1 -->
<g id="node1" class="node"><title>Node1</title>
<polygon fill="#bfbfbf" stroke="black" points="0,-19.5 0,-38.5 96,-38.5 96,-19.5 0,-19.5"/>
<text text-anchor="middle" x="48" y="-26.5" font-family="Helvetica,sans-Serif" font-size="10.00">util::String::Length</text>
</g>
<!-- Node2 -->
<g id="node2" class="node"><title>Node2</title>
<g id="a_node2"><a xlink:href="classutil_1_1String.html#abe3ad48188e112620c1eb8414a4a071e" target="_top" xlink:title="Copy constructor from String. ">
<polygon fill="white" stroke="black" points="140,-38.5 140,-57.5 232,-57.5 232,-38.5 140,-38.5"/>
<text text-anchor="middle" x="186" y="-45.5" font-family="Helvetica,sans-Serif" font-size="10.00">util::String::String</text>
</a>
</g>
</g>
<!-- Node1&#45;&gt;Node2 -->
<g id="edge1" class="edge"><title>Node1&#45;&gt;Node2</title>
<path fill="none" stroke="midnightblue" d="M106.293,-37.0041C117.459,-38.5641 129.02,-40.1793 139.732,-41.6758"/>
<polygon fill="midnightblue" stroke="midnightblue" points="106.573,-33.5093 96.1845,-35.592 105.604,-40.442 106.573,-33.5093"/>
</g>
<!-- Node3 -->
<g id="node3" class="node"><title>Node3</title>
<g id="a_node3"><a xlink:href="classutil_1_1String.html#adad563cff8a9d78b8a2854c644900e44" target="_top" xlink:title="Assignment operator from String. ">
<polygon fill="white" stroke="black" points="132,-0.5 132,-19.5 240,-19.5 240,-0.5 132,-0.5"/>
<text text-anchor="middle" x="186" y="-7.5" font-family="Helvetica,sans-Serif" font-size="10.00">util::String::operator=</text>
</a>
</g>
</g>
<!-- Node1&#45;&gt;Node3 -->
<g id="edge2" class="edge"><title>Node1&#45;&gt;Node3</title>
<path fill="none" stroke="midnightblue" d="M106.348,-20.9881C114.802,-19.8071 123.481,-18.5945 131.845,-17.426"/>
<polygon fill="midnightblue" stroke="midnightblue" points="105.604,-17.558 96.1845,-22.408 106.573,-24.4907 105.604,-17.558"/>
</g>
</g>
</svg>
