<?xml version="1.0" encoding="UTF-8" standalone="no"?>
<!DOCTYPE svg PUBLIC "-//W3C//DTD SVG 1.1//EN"
 "http://www.w3.org/Graphics/SVG/1.1/DTD/svg11.dtd">
<!-- Generated by graphviz version 2.36.0 (20140111.2315)
 -->
<!-- Title: util::String::Append Pages: 1 -->
<svg width="478pt" height="66pt"
 viewBox="0.00 0.00 478.00 66.00" xmlns="http://www.w3.org/2000/svg" xmlns:xlink="http://www.w3.org/1999/xlink">
<g id="graph0" class="graph" transform="scale(1 1) rotate(0) translate(4 62)">
<title>util::String::Append</title>
<polygon fill="white" stroke="none" points="-4,4 -4,-62 474,-62 474,4 -4,4"/>
<!-- Node1 -->
<g id="node1" class="node"><title>Node1</title>
<polygon fill="#bfbfbf" stroke="black" points="0,-19.5 0,-38.5 100,-38.5 100,-19.5 0,-19.5"/>
<text text-anchor="middle" x="50" y="-26.5" font-family="Helvetica,sans-Serif" font-size="10.00">util::String::Append</text>
</g>
<!-- Node2 -->
<g id="node2" class="node"><title>Node2</title>
<g id="a_node2"><a xlink:href="namespaceutil.html#ac9119bdb7fd3110bd304d77460a86ed0" target="_top" xlink:title="Replacement for strlen. ">
<polygon fill="white" stroke="black" points="156.5,-38.5 156.5,-57.5 215.5,-57.5 215.5,-38.5 156.5,-38.5"/>
<text text-anchor="middle" x="186" y="-45.5" font-family="Helvetica,sans-Serif" font-size="10.00">util::strlen</text>
</a>
</g>
</g>
<!-- Node1&#45;&gt;Node2 -->
<g id="edge1" class="edge"><title>Node1&#45;&gt;Node2</title>
<path fill="none" stroke="midnightblue" d="M100.136,-35.967C115.282,-38.1147 131.743,-40.4486 146.101,-42.4845"/>
<polygon fill="midnightblue" stroke="midnightblue" points="145.743,-45.9686 156.135,-43.9072 146.726,-39.038 145.743,-45.9686"/>
</g>
<!-- Node3 -->
<g id="node3" class="node"><title>Node3</title>
<g id="a_node3"><a xlink:href="classutil_1_1String.html#ad55e73410afb6a799ec70ab60a309a2b" target="_top" xlink:title="Ensures there is enough memory. ">
<polygon fill="white" stroke="black" points="136.5,-0.5 136.5,-19.5 235.5,-19.5 235.5,-0.5 136.5,-0.5"/>
<text text-anchor="middle" x="186" y="-7.5" font-family="Helvetica,sans-Serif" font-size="10.00">util::String::Enalloc</text>
</a>
</g>
</g>
<!-- Node1&#45;&gt;Node3 -->
<g id="edge2" class="edge"><title>Node1&#45;&gt;Node3</title>
<path fill="none" stroke="midnightblue" d="M100.136,-22.033C108.618,-20.8302 117.513,-19.5691 126.219,-18.3346"/>
<polygon fill="midnightblue" stroke="midnightblue" points="126.908,-21.772 136.318,-16.9027 125.926,-14.8413 126.908,-21.772"/>
</g>
<!-- Node4 -->
<g id="node4" class="node"><title>Node4</title>
<g id="a_node4"><a xlink:href="classutil_1_1String.html#a5208e787bb3b5608eebf0cb2eb94a29a" target="_top" xlink:title="Reallocates buffer memory. ">
<polygon fill="white" stroke="black" points="272,-0.5 272,-19.5 372,-19.5 372,-0.5 272,-0.5"/>
<text text-anchor="middle" x="322" y="-7.5" font-family="Helvetica,sans-Serif" font-size="10.00">util::String::Realloc</text>
</a>
</g>
</g>
<!-- Node3&#45;&gt;Node4 -->
<g id="edge3" class="edge"><title>Node3&#45;&gt;Node4</title>
<path fill="none" stroke="midnightblue" d="M235.756,-10C244.147,-10 252.95,-10 261.584,-10"/>
<polygon fill="midnightblue" stroke="midnightblue" points="261.606,-13.5001 271.606,-10 261.606,-6.5001 261.606,-13.5001"/>
</g>
<!-- Node5 -->
<g id="node5" class="node"><title>Node5</title>
<g id="a_node5"><a xlink:href="namespaceutil.html#ab5b1c6f07bee20ecae968d0523857c0a" target="_top" xlink:title="Replacement for strcpy. ">
<polygon fill="white" stroke="black" points="408,-0.5 408,-19.5 470,-19.5 470,-0.5 408,-0.5"/>
<text text-anchor="middle" x="439" y="-7.5" font-family="Helvetica,sans-Serif" font-size="10.00">util::strcpy</text>
</a>
</g>
</g>
<!-- Node4&#45;&gt;Node5 -->
<g id="edge4" class="edge"><title>Node4&#45;&gt;Node5</title>
<path fill="none" stroke="midnightblue" d="M372.104,-10C380.603,-10 389.352,-10 397.587,-10"/>
<polygon fill="midnightblue" stroke="midnightblue" points="397.685,-13.5001 407.685,-10 397.685,-6.5001 397.685,-13.5001"/>
</g>
</g>
</svg>
