<?xml version="1.0" encoding="UTF-8" standalone="no"?>
<!DOCTYPE svg PUBLIC "-//W3C//DTD SVG 1.1//EN"
 "http://www.w3.org/Graphics/SVG/1.1/DTD/svg11.dtd">
<!-- Generated by graphviz version 2.36.0 (20140111.2315)
 -->
<!-- Title: util::String::String Pages: 1 -->
<svg width="372pt" height="104pt"
 viewBox="0.00 0.00 372.00 104.00" xmlns="http://www.w3.org/2000/svg" xmlns:xlink="http://www.w3.org/1999/xlink">
<g id="graph0" class="graph" transform="scale(1 1) rotate(0) translate(4 100)">
<title>util::String::String</title>
<polygon fill="white" stroke="none" points="-4,4 -4,-100 368,-100 368,4 -4,4"/>
<!-- Node1 -->
<g id="node1" class="node"><title>Node1</title>
<polygon fill="#bfbfbf" stroke="black" points="0,-38.5 0,-57.5 92,-57.5 92,-38.5 0,-38.5"/>
<text text-anchor="middle" x="46" y="-45.5" font-family="Helvetica,sans-Serif" font-size="10.00">util::String::String</text>
</g>
<!-- Node2 -->
<g id="node2" class="node"><title>Node2</title>
<g id="a_node2"><a xlink:href="classutil_1_1String.html#a7c7fc66225ecb5baf5960eecfbe6d168" target="_top" xlink:title="Initializes private member variables. ">
<polygon fill="white" stroke="black" points="138,-76.5 138,-95.5 218,-95.5 218,-76.5 138,-76.5"/>
<text text-anchor="middle" x="178" y="-83.5" font-family="Helvetica,sans-Serif" font-size="10.00">util::String::Init</text>
</a>
</g>
</g>
<!-- Node1&#45;&gt;Node2 -->
<g id="edge1" class="edge"><title>Node1&#45;&gt;Node2</title>
<path fill="none" stroke="midnightblue" d="M79.8045,-57.589C96.2783,-62.4044 116.443,-68.2988 134.127,-73.468"/>
<polygon fill="midnightblue" stroke="midnightblue" points="133.626,-76.9677 144.206,-76.4141 135.59,-70.2489 133.626,-76.9677"/>
</g>
<!-- Node3 -->
<g id="node3" class="node"><title>Node3</title>
<g id="a_node3"><a xlink:href="classutil_1_1String.html#add6e410c0a63a07037fda94014b99cad" target="_top" xlink:title="Returns length of String. ">
<polygon fill="white" stroke="black" points="130,-38.5 130,-57.5 226,-57.5 226,-38.5 130,-38.5"/>
<text text-anchor="middle" x="178" y="-45.5" font-family="Helvetica,sans-Serif" font-size="10.00">util::String::Length</text>
</a>
</g>
</g>
<!-- Node1&#45;&gt;Node3 -->
<g id="edge2" class="edge"><title>Node1&#45;&gt;Node3</title>
<path fill="none" stroke="midnightblue" d="M92.1029,-48C100.948,-48 110.336,-48 119.522,-48"/>
<polygon fill="midnightblue" stroke="midnightblue" points="119.767,-51.5001 129.767,-48 119.767,-44.5001 119.767,-51.5001"/>
</g>
<!-- Node4 -->
<g id="node4" class="node"><title>Node4</title>
<g id="a_node4"><a xlink:href="classutil_1_1String.html#a41dbcd32aba6022654420f1ca8634e52" target="_top" xlink:title="Ensures there is enough memory. ">
<polygon fill="white" stroke="black" points="128.5,-0.5 128.5,-19.5 227.5,-19.5 227.5,-0.5 128.5,-0.5"/>
<text text-anchor="middle" x="178" y="-7.5" font-family="Helvetica,sans-Serif" font-size="10.00">util::String::Enalloc</text>
</a>
</g>
</g>
<!-- Node1&#45;&gt;Node4 -->
<g id="edge3" class="edge"><title>Node1&#45;&gt;Node4</title>
<path fill="none" stroke="midnightblue" d="M79.8045,-38.411C96.2783,-33.5956 116.443,-27.7012 134.127,-22.532"/>
<polygon fill="midnightblue" stroke="midnightblue" points="135.59,-25.7511 144.206,-19.5859 133.626,-19.0323 135.59,-25.7511"/>
</g>
<!-- Node5 -->
<g id="node5" class="node"><title>Node5</title>
<g id="a_node5"><a xlink:href="classutil_1_1String.html#ae1530f1c2413c3fca5a293d7d739d27e" target="_top" xlink:title="Reallocates buffer memory. ">
<polygon fill="white" stroke="black" points="264,-0.5 264,-19.5 364,-19.5 364,-0.5 264,-0.5"/>
<text text-anchor="middle" x="314" y="-7.5" font-family="Helvetica,sans-Serif" font-size="10.00">util::String::Realloc</text>
</a>
</g>
</g>
<!-- Node4&#45;&gt;Node5 -->
<g id="edge4" class="edge"><title>Node4&#45;&gt;Node5</title>
<path fill="none" stroke="midnightblue" d="M227.756,-10C236.147,-10 244.95,-10 253.584,-10"/>
<polygon fill="midnightblue" stroke="midnightblue" points="253.606,-13.5001 263.606,-10 253.606,-6.5001 253.606,-13.5001"/>
</g>
</g>
</svg>
