<?xml version="1.0" encoding="UTF-8" standalone="no"?>
<!DOCTYPE svg PUBLIC "-//W3C//DTD SVG 1.1//EN"
 "http://www.w3.org/Graphics/SVG/1.1/DTD/svg11.dtd">
<!-- Generated by graphviz version 2.36.0 (20140111.2315)
 -->
<!-- Title: util::String::String Pages: 1 -->
<svg width="470pt" height="126pt"
 viewBox="0.00 0.00 470.00 126.12" xmlns="http://www.w3.org/2000/svg" xmlns:xlink="http://www.w3.org/1999/xlink">
<g id="graph0" class="graph" transform="scale(1 1) rotate(0) translate(4 122.123)">
<title>util::String::String</title>
<polygon fill="white" stroke="none" points="-4,4 -4,-122.123 466,-122.123 466,4 -4,4"/>
<!-- Node1 -->
<g id="node1" class="node"><title>Node1</title>
<polygon fill="#bfbfbf" stroke="black" points="0,-41.6233 0,-60.6233 92,-60.6233 92,-41.6233 0,-41.6233"/>
<text text-anchor="middle" x="46" y="-48.6233" font-family="Helvetica,sans-Serif" font-size="10.00">util::String::String</text>
</g>
<!-- Node2 -->
<g id="node2" class="node"><title>Node2</title>
<g id="a_node2"><a xlink:href="classutil_1_1String.html#abe05cfbfb31ab7703efe73e8c59d3113" target="_top" xlink:title="Initializes private member variables. ">
<polygon fill="white" stroke="black" points="138,-98.6233 138,-117.623 218,-117.623 218,-98.6233 138,-98.6233"/>
<text text-anchor="middle" x="178" y="-105.623" font-family="Helvetica,sans-Serif" font-size="10.00">util::String::Init</text>
</a>
</g>
</g>
<!-- Node1&#45;&gt;Node2 -->
<g id="edge1" class="edge"><title>Node1&#45;&gt;Node2</title>
<path fill="none" stroke="midnightblue" d="M66.4707,-60.7181C82.7729,-68.64 106.721,-80.0193 128,-89.1233 132.483,-91.0411 137.229,-92.9862 141.933,-94.8636"/>
<polygon fill="midnightblue" stroke="midnightblue" points="140.846,-98.1967 151.434,-98.5916 143.403,-91.6805 140.846,-98.1967"/>
</g>
<!-- Node3 -->
<g id="node3" class="node"><title>Node3</title>
<g id="a_node3"><a xlink:href="namespaceutil.html#ac9119bdb7fd3110bd304d77460a86ed0" target="_top" xlink:title="Replacement for strlen. ">
<polygon fill="white" stroke="black" points="148.5,-60.6233 148.5,-79.6233 207.5,-79.6233 207.5,-60.6233 148.5,-60.6233"/>
<text text-anchor="middle" x="178" y="-67.6233" font-family="Helvetica,sans-Serif" font-size="10.00">util::strlen</text>
</a>
</g>
</g>
<!-- Node1&#45;&gt;Node3 -->
<g id="edge2" class="edge"><title>Node1&#45;&gt;Node3</title>
<path fill="none" stroke="midnightblue" d="M92.1029,-57.7152C107.092,-59.9059 123.643,-62.3249 138.12,-64.4408"/>
<polygon fill="midnightblue" stroke="midnightblue" points="137.842,-67.9373 148.243,-65.9204 138.855,-61.0109 137.842,-67.9373"/>
</g>
<!-- Node4 -->
<g id="node4" class="node"><title>Node4</title>
<g id="a_node4"><a xlink:href="classutil_1_1String.html#ad55e73410afb6a799ec70ab60a309a2b" target="_top" xlink:title="Ensures there is enough memory. ">
<polygon fill="white" stroke="black" points="128.5,-22.6233 128.5,-41.6233 227.5,-41.6233 227.5,-22.6233 128.5,-22.6233"/>
<text text-anchor="middle" x="178" y="-29.6233" font-family="Helvetica,sans-Serif" font-size="10.00">util::String::Enalloc</text>
</a>
</g>
</g>
<!-- Node1&#45;&gt;Node4 -->
<g id="edge3" class="edge"><title>Node1&#45;&gt;Node4</title>
<path fill="none" stroke="midnightblue" d="M92.1029,-44.5313C100.628,-43.2853 109.658,-41.9655 118.525,-40.6696"/>
<polygon fill="midnightblue" stroke="midnightblue" points="119.042,-44.1313 128.431,-39.2218 118.03,-37.2048 119.042,-44.1313"/>
</g>
<!-- Node6 -->
<g id="node6" class="node"><title>Node6</title>
<g id="a_node6"><a xlink:href="namespaceutil.html#ab5b1c6f07bee20ecae968d0523857c0a" target="_top" xlink:title="Replacement for strcpy. ">
<polygon fill="white" stroke="black" points="400,-3.62326 400,-22.6233 462,-22.6233 462,-3.62326 400,-3.62326"/>
<text text-anchor="middle" x="431" y="-10.6233" font-family="Helvetica,sans-Serif" font-size="10.00">util::strcpy</text>
</a>
</g>
</g>
<!-- Node1&#45;&gt;Node6 -->
<g id="edge6" class="edge"><title>Node1&#45;&gt;Node6</title>
<path fill="none" stroke="midnightblue" d="M62.1007,-41.556C77.8464,-32.1915 103.591,-18.5644 128,-13.1233 219.775,7.33459 331.174,-0.870585 389.663,-7.61945"/>
<polygon fill="midnightblue" stroke="midnightblue" points="389.606,-11.1377 399.952,-8.85543 390.441,-4.18762 389.606,-11.1377"/>
</g>
<!-- Node5 -->
<g id="node5" class="node"><title>Node5</title>
<g id="a_node5"><a xlink:href="classutil_1_1String.html#a5208e787bb3b5608eebf0cb2eb94a29a" target="_top" xlink:title="Reallocates buffer memory. ">
<polygon fill="white" stroke="black" points="264,-22.6233 264,-41.6233 364,-41.6233 364,-22.6233 264,-22.6233"/>
<text text-anchor="middle" x="314" y="-29.6233" font-family="Helvetica,sans-Serif" font-size="10.00">util::String::Realloc</text>
</a>
</g>
</g>
<!-- Node4&#45;&gt;Node5 -->
<g id="edge4" class="edge"><title>Node4&#45;&gt;Node5</title>
<path fill="none" stroke="midnightblue" d="M227.756,-32.1233C236.147,-32.1233 244.95,-32.1233 253.584,-32.1233"/>
<polygon fill="midnightblue" stroke="midnightblue" points="253.606,-35.6234 263.606,-32.1233 253.606,-28.6234 253.606,-35.6234"/>
</g>
<!-- Node5&#45;&gt;Node6 -->
<g id="edge5" class="edge"><title>Node5&#45;&gt;Node6</title>
<path fill="none" stroke="midnightblue" d="M364.104,-24.0104C372.603,-22.6062 381.352,-21.1607 389.587,-19.8002"/>
<polygon fill="midnightblue" stroke="midnightblue" points="390.39,-23.2151 399.685,-18.1318 389.248,-16.3088 390.39,-23.2151"/>
</g>
</g>
</svg>
