<?xml version="1.0" encoding="UTF-8" standalone="no"?>
<!DOCTYPE svg PUBLIC "-//W3C//DTD SVG 1.1//EN"
 "http://www.w3.org/Graphics/SVG/1.1/DTD/svg11.dtd">
<!-- Generated by graphviz version 2.36.0 (20140111.2315)
 -->
<!-- Title: util::String::Realloc Pages: 1 -->
<svg width="502pt" height="104pt"
 viewBox="0.00 0.00 502.00 104.00" xmlns="http://www.w3.org/2000/svg" xmlns:xlink="http://www.w3.org/1999/xlink">
<g id="graph0" class="graph" transform="scale(1 1) rotate(0) translate(4 100)">
<title>util::String::Realloc</title>
<polygon fill="white" stroke="none" points="-4,4 -4,-100 498,-100 498,4 -4,4"/>
<!-- Node1 -->
<g id="node1" class="node"><title>Node1</title>
<polygon fill="#bfbfbf" stroke="black" points="0,-38.5 0,-57.5 100,-57.5 100,-38.5 0,-38.5"/>
<text text-anchor="middle" x="50" y="-45.5" font-family="Helvetica,sans-Serif" font-size="10.00">util::String::Realloc</text>
</g>
<!-- Node2 -->
<g id="node2" class="node"><title>Node2</title>
<g id="a_node2"><a xlink:href="classutil_1_1String.html#ad55e73410afb6a799ec70ab60a309a2b" target="_top" xlink:title="Ensures there is enough memory. ">
<polygon fill="white" stroke="black" points="136.5,-38.5 136.5,-57.5 235.5,-57.5 235.5,-38.5 136.5,-38.5"/>
<text text-anchor="middle" x="186" y="-45.5" font-family="Helvetica,sans-Serif" font-size="10.00">util::String::Enalloc</text>
</a>
</g>
</g>
<!-- Node1&#45;&gt;Node2 -->
<g id="edge1" class="edge"><title>Node1&#45;&gt;Node2</title>
<path fill="none" stroke="midnightblue" d="M110.247,-48C118.96,-48 127.85,-48 136.318,-48"/>
<polygon fill="midnightblue" stroke="midnightblue" points="110.136,-44.5001 100.136,-48 110.136,-51.5001 110.136,-44.5001"/>
</g>
<!-- Node3 -->
<g id="node3" class="node"><title>Node3</title>
<g id="a_node3"><a xlink:href="classutil_1_1String.html#aa1088c473f0e2a7f3811199339e9aaf9" target="_top" xlink:title="Copy constructor from String. ">
<polygon fill="white" stroke="black" points="280,-76.5 280,-95.5 372,-95.5 372,-76.5 280,-76.5"/>
<text text-anchor="middle" x="326" y="-83.5" font-family="Helvetica,sans-Serif" font-size="10.00">util::String::String</text>
</a>
</g>
</g>
<!-- Node2&#45;&gt;Node3 -->
<g id="edge2" class="edge"><title>Node2&#45;&gt;Node3</title>
<path fill="none" stroke="midnightblue" d="M231.473,-60.2462C250.495,-65.484 272.375,-71.5091 290.188,-76.4141"/>
<polygon fill="midnightblue" stroke="midnightblue" points="232.394,-56.8695 221.823,-57.589 230.535,-63.6183 232.394,-56.8695"/>
</g>
<!-- Node4 -->
<g id="node4" class="node"><title>Node4</title>
<g id="a_node4"><a xlink:href="classutil_1_1String.html#af6e4eac45ea96302e576fe299bc44167" target="_top" xlink:title="Appends String. ">
<polygon fill="white" stroke="black" points="276,-38.5 276,-57.5 376,-57.5 376,-38.5 276,-38.5"/>
<text text-anchor="middle" x="326" y="-45.5" font-family="Helvetica,sans-Serif" font-size="10.00">util::String::Append</text>
</a>
</g>
</g>
<!-- Node2&#45;&gt;Node4 -->
<g id="edge3" class="edge"><title>Node2&#45;&gt;Node4</title>
<path fill="none" stroke="midnightblue" d="M245.913,-48C255.892,-48 266.159,-48 275.854,-48"/>
<polygon fill="midnightblue" stroke="midnightblue" points="245.654,-44.5001 235.654,-48 245.654,-51.5001 245.654,-44.5001"/>
</g>
<!-- Node6 -->
<g id="node6" class="node"><title>Node6</title>
<g id="a_node6"><a xlink:href="classutil_1_1String.html#adad563cff8a9d78b8a2854c644900e44" target="_top" xlink:title="Assignment operator from String. ">
<polygon fill="white" stroke="black" points="272,-0.5 272,-19.5 380,-19.5 380,-0.5 272,-0.5"/>
<text text-anchor="middle" x="326" y="-7.5" font-family="Helvetica,sans-Serif" font-size="10.00">util::String::operator=</text>
</a>
</g>
</g>
<!-- Node2&#45;&gt;Node6 -->
<g id="edge5" class="edge"><title>Node2&#45;&gt;Node6</title>
<path fill="none" stroke="midnightblue" d="M231.473,-35.7538C250.495,-30.516 272.375,-24.4909 290.188,-19.5859"/>
<polygon fill="midnightblue" stroke="midnightblue" points="230.535,-32.3817 221.823,-38.411 232.394,-39.1305 230.535,-32.3817"/>
</g>
<!-- Node5 -->
<g id="node5" class="node"><title>Node5</title>
<g id="a_node5"><a xlink:href="namespaceutil.html#ac5344b02cd5f4e956a3a8a67e02dc5b8" target="_top" xlink:title="util::operator+">
<polygon fill="white" stroke="black" points="416.5,-38.5 416.5,-57.5 493.5,-57.5 493.5,-38.5 416.5,-38.5"/>
<text text-anchor="middle" x="455" y="-45.5" font-family="Helvetica,sans-Serif" font-size="10.00">util::operator+</text>
</a>
</g>
</g>
<!-- Node4&#45;&gt;Node5 -->
<g id="edge4" class="edge"><title>Node4&#45;&gt;Node5</title>
<path fill="none" stroke="midnightblue" d="M386.282,-48C396.552,-48 406.97,-48 416.454,-48"/>
<polygon fill="midnightblue" stroke="midnightblue" points="386.102,-44.5001 376.102,-48 386.101,-51.5001 386.102,-44.5001"/>
</g>
</g>
</svg>
