<?xml version="1.0" encoding="UTF-8" standalone="no"?>
<!DOCTYPE svg PUBLIC "-//W3C//DTD SVG 1.1//EN"
 "http://www.w3.org/Graphics/SVG/1.1/DTD/svg11.dtd">
<!-- Generated by graphviz version 2.36.0 (20140111.2315)
 -->
<!-- Title: util::String::Realloc Pages: 1 -->
<svg width="538pt" height="104pt"
 viewBox="0.00 0.00 538.00 104.00" xmlns="http://www.w3.org/2000/svg" xmlns:xlink="http://www.w3.org/1999/xlink">
<g id="graph0" class="graph" transform="scale(1 1) rotate(0) translate(4 100)">
<title>util::String::Realloc</title>
<polygon fill="white" stroke="none" points="-4,4 -4,-100 534,-100 534,4 -4,4"/>
<!-- Node1 -->
<g id="node1" class="node"><title>Node1</title>
<polygon fill="#bfbfbf" stroke="black" points="0,-38.5 0,-57.5 100,-57.5 100,-38.5 0,-38.5"/>
<text text-anchor="middle" x="50" y="-45.5" font-family="Helvetica,sans-Serif" font-size="10.00">util::String::Realloc</text>
</g>
<!-- Node2 -->
<g id="node2" class="node"><title>Node2</title>
<g id="a_node2"><a xlink:href="classutil_1_1String.html#ad55e73410afb6a799ec70ab60a309a2b" target="_top" xlink:title="Ensures there is enough memory. ">
<polygon fill="white" stroke="black" points="136.5,-38.5 136.5,-57.5 235.5,-57.5 235.5,-38.5 136.5,-38.5"/>
<text text-anchor="middle" x="186" y="-45.5" font-family="Helvetica,sans-Serif" font-size="10.00">util::String::Enalloc</text>
</a>
</g>
</g>
<!-- Node1&#45;&gt;Node2 -->
<g id="edge1" class="edge"><title>Node1&#45;&gt;Node2</title>
<path fill="none" stroke="midnightblue" d="M110.247,-48C118.96,-48 127.85,-48 136.318,-48"/>
<polygon fill="midnightblue" stroke="midnightblue" points="110.136,-44.5001 100.136,-48 110.136,-51.5001 110.136,-44.5001"/>
</g>
<!-- Node3 -->
<g id="node3" class="node"><title>Node3</title>
<g id="a_node3"><a xlink:href="classutil_1_1String.html#aa1088c473f0e2a7f3811199339e9aaf9" target="_top" xlink:title="Copy constructor. ">
<polygon fill="white" stroke="black" points="280,-76.5 280,-95.5 372,-95.5 372,-76.5 280,-76.5"/>
<text text-anchor="middle" x="326" y="-83.5" font-family="Helvetica,sans-Serif" font-size="10.00">util::String::String</text>
</a>
</g>
</g>
<!-- Node2&#45;&gt;Node3 -->
<g id="edge2" class="edge"><title>Node2&#45;&gt;Node3</title>
<path fill="none" stroke="midnightblue" d="M231.473,-60.2462C250.495,-65.484 272.375,-71.5091 290.188,-76.4141"/>
<polygon fill="midnightblue" stroke="midnightblue" points="232.394,-56.8695 221.823,-57.589 230.535,-63.6183 232.394,-56.8695"/>
</g>
<!-- Node4 -->
<g id="node4" class="node"><title>Node4</title>
<g id="a_node4"><a xlink:href="classutil_1_1String.html#af6e4eac45ea96302e576fe299bc44167" target="_top" xlink:title="Appends String. ">
<polygon fill="white" stroke="black" points="276,-38.5 276,-57.5 376,-57.5 376,-38.5 276,-38.5"/>
<text text-anchor="middle" x="326" y="-45.5" font-family="Helvetica,sans-Serif" font-size="10.00">util::String::Append</text>
</a>
</g>
</g>
<!-- Node2&#45;&gt;Node4 -->
<g id="edge3" class="edge"><title>Node2&#45;&gt;Node4</title>
<path fill="none" stroke="midnightblue" d="M245.913,-48C255.892,-48 266.159,-48 275.854,-48"/>
<polygon fill="midnightblue" stroke="midnightblue" points="245.654,-44.5001 235.654,-48 245.654,-51.5001 245.654,-44.5001"/>
</g>
<!-- Node7 -->
<g id="node7" class="node"><title>Node7</title>
<g id="a_node7"><a xlink:href="classutil_1_1String.html#adad563cff8a9d78b8a2854c644900e44" target="_top" xlink:title="Assignment operator. ">
<polygon fill="white" stroke="black" points="272,-0.5 272,-19.5 380,-19.5 380,-0.5 272,-0.5"/>
<text text-anchor="middle" x="326" y="-7.5" font-family="Helvetica,sans-Serif" font-size="10.00">util::String::operator=</text>
</a>
</g>
</g>
<!-- Node2&#45;&gt;Node7 -->
<g id="edge6" class="edge"><title>Node2&#45;&gt;Node7</title>
<path fill="none" stroke="midnightblue" d="M231.473,-35.7538C250.495,-30.516 272.375,-24.4909 290.188,-19.5859"/>
<polygon fill="midnightblue" stroke="midnightblue" points="230.535,-32.3817 221.823,-38.411 232.394,-39.1305 230.535,-32.3817"/>
</g>
<!-- Node5 -->
<g id="node5" class="node"><title>Node5</title>
<g id="a_node5"><a xlink:href="classutil_1_1String.html#ae994dd6990d30ab95e288cb9664385c2" target="_top" xlink:title="Concatenation operator. ">
<polygon fill="white" stroke="black" points="416,-57.5 416,-76.5 530,-76.5 530,-57.5 416,-57.5"/>
<text text-anchor="middle" x="473" y="-64.5" font-family="Helvetica,sans-Serif" font-size="10.00">util::String::operator+=</text>
</a>
</g>
</g>
<!-- Node4&#45;&gt;Node5 -->
<g id="edge4" class="edge"><title>Node4&#45;&gt;Node5</title>
<path fill="none" stroke="midnightblue" d="M386.19,-55.7559C396.029,-57.0452 406.207,-58.3789 415.965,-59.6575"/>
<polygon fill="midnightblue" stroke="midnightblue" points="386.46,-52.2615 376.09,-54.4325 385.551,-59.2022 386.46,-52.2615"/>
</g>
<!-- Node6 -->
<g id="node6" class="node"><title>Node6</title>
<g id="a_node6"><a xlink:href="namespaceutil.html#ac5344b02cd5f4e956a3a8a67e02dc5b8" target="_top" xlink:title="util::operator+">
<polygon fill="white" stroke="black" points="434.5,-19.5 434.5,-38.5 511.5,-38.5 511.5,-19.5 434.5,-19.5"/>
<text text-anchor="middle" x="473" y="-26.5" font-family="Helvetica,sans-Serif" font-size="10.00">util::operator+</text>
</a>
</g>
</g>
<!-- Node4&#45;&gt;Node6 -->
<g id="edge5" class="edge"><title>Node4&#45;&gt;Node6</title>
<path fill="none" stroke="midnightblue" d="M386.102,-40.2556C402.426,-38.1166 419.689,-35.8546 434.423,-33.9239"/>
<polygon fill="midnightblue" stroke="midnightblue" points="385.551,-36.7978 376.09,-41.5675 386.46,-43.7385 385.551,-36.7978"/>
</g>
</g>
</svg>
