<?xml version="1.0" encoding="UTF-8" standalone="no"?>
<!DOCTYPE svg PUBLIC "-//W3C//DTD SVG 1.1//EN"
 "http://www.w3.org/Graphics/SVG/1.1/DTD/svg11.dtd">
<!-- Generated by graphviz version 2.36.0 (20140111.2315)
 -->
<!-- Title: util::String::Length Pages: 1 -->
<svg width="398pt" height="104pt"
 viewBox="0.00 0.00 398.00 104.00" xmlns="http://www.w3.org/2000/svg" xmlns:xlink="http://www.w3.org/1999/xlink">
<g id="graph0" class="graph" transform="scale(1 1) rotate(0) translate(4 100)">
<title>util::String::Length</title>
<polygon fill="white" stroke="none" points="-4,4 -4,-100 394,-100 394,4 -4,4"/>
<!-- Node1 -->
<g id="node1" class="node"><title>Node1</title>
<polygon fill="#bfbfbf" stroke="black" points="0,-38.5 0,-57.5 96,-57.5 96,-38.5 0,-38.5"/>
<text text-anchor="middle" x="48" y="-45.5" font-family="Helvetica,sans-Serif" font-size="10.00">util::String::Length</text>
</g>
<!-- Node2 -->
<g id="node2" class="node"><title>Node2</title>
<g id="a_node2"><a xlink:href="classutil_1_1String.html#aa1088c473f0e2a7f3811199339e9aaf9" target="_top" xlink:title="Copy constructor. ">
<polygon fill="white" stroke="black" points="140,-76.5 140,-95.5 232,-95.5 232,-76.5 140,-76.5"/>
<text text-anchor="middle" x="186" y="-83.5" font-family="Helvetica,sans-Serif" font-size="10.00">util::String::String</text>
</a>
</g>
</g>
<!-- Node1&#45;&gt;Node2 -->
<g id="edge1" class="edge"><title>Node1&#45;&gt;Node2</title>
<path fill="none" stroke="midnightblue" d="M93.0866,-60.3183C111.772,-65.5393 133.218,-71.5316 150.692,-76.4141"/>
<polygon fill="midnightblue" stroke="midnightblue" points="93.8915,-56.9092 83.3185,-57.589 92.0078,-63.651 93.8915,-56.9092"/>
</g>
<!-- Node3 -->
<g id="node3" class="node"><title>Node3</title>
<g id="a_node3"><a xlink:href="classutil_1_1String.html#af6e4eac45ea96302e576fe299bc44167" target="_top" xlink:title="Appends String. ">
<polygon fill="white" stroke="black" points="136,-38.5 136,-57.5 236,-57.5 236,-38.5 136,-38.5"/>
<text text-anchor="middle" x="186" y="-45.5" font-family="Helvetica,sans-Serif" font-size="10.00">util::String::Append</text>
</a>
</g>
</g>
<!-- Node1&#45;&gt;Node3 -->
<g id="edge2" class="edge"><title>Node1&#45;&gt;Node3</title>
<path fill="none" stroke="midnightblue" d="M106.215,-48C115.979,-48 126.047,-48 135.587,-48"/>
<polygon fill="midnightblue" stroke="midnightblue" points="106.185,-44.5001 96.1845,-48 106.184,-51.5001 106.185,-44.5001"/>
</g>
<!-- Node6 -->
<g id="node6" class="node"><title>Node6</title>
<g id="a_node6"><a xlink:href="classutil_1_1String.html#adad563cff8a9d78b8a2854c644900e44" target="_top" xlink:title="Assignment operator. ">
<polygon fill="white" stroke="black" points="132,-0.5 132,-19.5 240,-19.5 240,-0.5 132,-0.5"/>
<text text-anchor="middle" x="186" y="-7.5" font-family="Helvetica,sans-Serif" font-size="10.00">util::String::operator=</text>
</a>
</g>
</g>
<!-- Node1&#45;&gt;Node6 -->
<g id="edge5" class="edge"><title>Node1&#45;&gt;Node6</title>
<path fill="none" stroke="midnightblue" d="M93.0866,-35.6817C111.772,-30.4607 133.218,-24.4684 150.692,-19.5859"/>
<polygon fill="midnightblue" stroke="midnightblue" points="92.0078,-32.349 83.3185,-38.411 93.8915,-39.0908 92.0078,-32.349"/>
</g>
<!-- Node4 -->
<g id="node4" class="node"><title>Node4</title>
<g id="a_node4"><a xlink:href="classutil_1_1String.html#ae994dd6990d30ab95e288cb9664385c2" target="_top" xlink:title="Concatenation operator. ">
<polygon fill="white" stroke="black" points="276,-57.5 276,-76.5 390,-76.5 390,-57.5 276,-57.5"/>
<text text-anchor="middle" x="333" y="-64.5" font-family="Helvetica,sans-Serif" font-size="10.00">util::String::operator+=</text>
</a>
</g>
</g>
<!-- Node3&#45;&gt;Node4 -->
<g id="edge3" class="edge"><title>Node3&#45;&gt;Node4</title>
<path fill="none" stroke="midnightblue" d="M246.19,-55.7559C256.029,-57.0452 266.207,-58.3789 275.965,-59.6575"/>
<polygon fill="midnightblue" stroke="midnightblue" points="246.46,-52.2615 236.09,-54.4325 245.551,-59.2022 246.46,-52.2615"/>
</g>
<!-- Node5 -->
<g id="node5" class="node"><title>Node5</title>
<g id="a_node5"><a xlink:href="namespaceutil.html#ac5344b02cd5f4e956a3a8a67e02dc5b8" target="_top" xlink:title="util::operator+">
<polygon fill="white" stroke="black" points="294.5,-19.5 294.5,-38.5 371.5,-38.5 371.5,-19.5 294.5,-19.5"/>
<text text-anchor="middle" x="333" y="-26.5" font-family="Helvetica,sans-Serif" font-size="10.00">util::operator+</text>
</a>
</g>
</g>
<!-- Node3&#45;&gt;Node5 -->
<g id="edge4" class="edge"><title>Node3&#45;&gt;Node5</title>
<path fill="none" stroke="midnightblue" d="M246.102,-40.2556C262.426,-38.1166 279.689,-35.8546 294.423,-33.9239"/>
<polygon fill="midnightblue" stroke="midnightblue" points="245.551,-36.7978 236.09,-41.5675 246.46,-43.7385 245.551,-36.7978"/>
</g>
</g>
</svg>
