<?xml version="1.0" encoding="UTF-8" standalone="no"?>
<!DOCTYPE svg PUBLIC "-//W3C//DTD SVG 1.1//EN"
 "http://www.w3.org/Graphics/SVG/1.1/DTD/svg11.dtd">
<!-- Generated by graphviz version 2.36.0 (20140111.2315)
 -->
<!-- Title: src/engine/Engine.cpp Pages: 1 -->
<svg width="132pt" height="84pt"
 viewBox="0.00 0.00 132.00 84.00" xmlns="http://www.w3.org/2000/svg" xmlns:xlink="http://www.w3.org/1999/xlink">
<g id="graph0" class="graph" transform="scale(1 1) rotate(0) translate(4 80)">
<title>src/engine/Engine.cpp</title>
<polygon fill="white" stroke="none" points="-4,4 -4,-80 128,-80 128,4 -4,4"/>
<!-- Node1 -->
<g id="node1" class="node"><title>Node1</title>
<polygon fill="#bfbfbf" stroke="black" points="0,-56.5 0,-75.5 122,-75.5 122,-56.5 0,-56.5"/>
<text text-anchor="middle" x="61" y="-63.5" font-family="FreeSans" font-size="10.00">src/engine/Engine.cpp</text>
</g>
<!-- Node2 -->
<g id="node2" class="node"><title>Node2</title>
<polygon fill="white" stroke="#bfbfbf" points="8,-0.5 8,-19.5 48,-19.5 48,-0.5 8,-0.5"/>
<text text-anchor="middle" x="28" y="-7.5" font-family="FreeSans" font-size="10.00">util.h</text>
</g>
<!-- Node1&#45;&gt;Node2 -->
<g id="edge1" class="edge"><title>Node1&#45;&gt;Node2</title>
<path fill="none" stroke="midnightblue" d="M55.5507,-56.083C50.9855,-48.6127 44.3316,-37.7244 38.7066,-28.5199"/>
<polygon fill="midnightblue" stroke="midnightblue" points="41.5489,-26.4588 33.3479,-19.7511 35.5759,-30.109 41.5489,-26.4588"/>
</g>
<!-- Node3 -->
<g id="node3" class="node"><title>Node3</title>
<polygon fill="white" stroke="#bfbfbf" points="66,-0.5 66,-19.5 124,-19.5 124,-0.5 66,-0.5"/>
<text text-anchor="middle" x="95" y="-7.5" font-family="FreeSans" font-size="10.00">engine.h</text>
</g>
<!-- Node1&#45;&gt;Node3 -->
<g id="edge2" class="edge"><title>Node1&#45;&gt;Node3</title>
<path fill="none" stroke="midnightblue" d="M66.6144,-56.083C71.3674,-48.5341 78.3181,-37.4948 84.1516,-28.2298"/>
<polygon fill="midnightblue" stroke="midnightblue" points="87.1237,-30.0783 89.4901,-19.7511 81.2001,-26.3486 87.1237,-30.0783"/>
</g>
</g>
</svg>
