<?xml version="1.0" encoding="UTF-8" standalone="no"?>
<!DOCTYPE svg PUBLIC "-//W3C//DTD SVG 1.1//EN"
 "http://www.w3.org/Graphics/SVG/1.1/DTD/svg11.dtd">
<!-- Generated by graphviz version 2.36.0 (20140111.2315)
 -->
<!-- Title: src/game/main.cpp Pages: 1 -->
<svg width="125pt" height="84pt"
 viewBox="0.00 0.00 125.00 84.00" xmlns="http://www.w3.org/2000/svg" xmlns:xlink="http://www.w3.org/1999/xlink">
<g id="graph0" class="graph" transform="scale(1 1) rotate(0) translate(4 80)">
<title>src/game/main.cpp</title>
<polygon fill="white" stroke="none" points="-4,4 -4,-80 121,-80 121,4 -4,4"/>
<!-- Node1 -->
<g id="node1" class="node"><title>Node1</title>
<polygon fill="#bfbfbf" stroke="black" points="-0.5,-56.5 -0.5,-75.5 108.5,-75.5 108.5,-56.5 -0.5,-56.5"/>
<text text-anchor="middle" x="54" y="-63.5" font-family="FreeSans" font-size="10.00">src/game/main.cpp</text>
</g>
<!-- Node2 -->
<g id="node2" class="node"><title>Node2</title>
<polygon fill="white" stroke="#bfbfbf" points="1,-0.5 1,-19.5 41,-19.5 41,-0.5 1,-0.5"/>
<text text-anchor="middle" x="21" y="-7.5" font-family="FreeSans" font-size="10.00">util.h</text>
</g>
<!-- Node1&#45;&gt;Node2 -->
<g id="edge1" class="edge"><title>Node1&#45;&gt;Node2</title>
<path fill="none" stroke="midnightblue" d="M48.5507,-56.083C43.9855,-48.6127 37.3316,-37.7244 31.7066,-28.5199"/>
<polygon fill="midnightblue" stroke="midnightblue" points="34.5489,-26.4588 26.3479,-19.7511 28.5759,-30.109 34.5489,-26.4588"/>
</g>
<!-- Node3 -->
<g id="node3" class="node"><title>Node3</title>
<polygon fill="white" stroke="#bfbfbf" points="59,-0.5 59,-19.5 117,-19.5 117,-0.5 59,-0.5"/>
<text text-anchor="middle" x="88" y="-7.5" font-family="FreeSans" font-size="10.00">engine.h</text>
</g>
<!-- Node1&#45;&gt;Node3 -->
<g id="edge2" class="edge"><title>Node1&#45;&gt;Node3</title>
<path fill="none" stroke="midnightblue" d="M59.6144,-56.083C64.3674,-48.5341 71.3181,-37.4948 77.1516,-28.2298"/>
<polygon fill="midnightblue" stroke="midnightblue" points="80.1237,-30.0783 82.4901,-19.7511 74.2001,-26.3486 80.1237,-30.0783"/>
</g>
</g>
</svg>
