<?xml version="1.0" encoding="UTF-8" standalone="no"?>
<!DOCTYPE svg PUBLIC "-//W3C//DTD SVG 1.1//EN"
 "http://www.w3.org/Graphics/SVG/1.1/DTD/svg11.dtd">
<!-- Generated by graphviz version 2.36.0 (20140111.2315)
 -->
<!-- Title: src/game/main.cpp Pages: 1 -->
<svg width="117pt" height="84pt"
 viewBox="0.00 0.00 117.00 84.00" xmlns="http://www.w3.org/2000/svg" xmlns:xlink="http://www.w3.org/1999/xlink">
<g id="graph0" class="graph" transform="scale(1 1) rotate(0) translate(4 80)">
<title>src/game/main.cpp</title>
<polygon fill="white" stroke="none" points="-4,4 -4,-80 113,-80 113,4 -4,4"/>
<!-- Node1 -->
<g id="node1" class="node"><title>Node1</title>
<polygon fill="#bfbfbf" stroke="black" points="1,-56.5 1,-75.5 101,-75.5 101,-56.5 1,-56.5"/>
<text text-anchor="middle" x="51" y="-63.5" font-family="Helvetica,sans-Serif" font-size="10.00">src/game/main.cpp</text>
</g>
<!-- Node2 -->
<g id="node2" class="node"><title>Node2</title>
<polygon fill="white" stroke="#bfbfbf" points="0,-0.5 0,-19.5 38,-19.5 38,-0.5 0,-0.5"/>
<text text-anchor="middle" x="19" y="-7.5" font-family="Helvetica,sans-Serif" font-size="10.00">util.h</text>
</g>
<!-- Node1&#45;&gt;Node2 -->
<g id="edge1" class="edge"><title>Node1&#45;&gt;Node2</title>
<path fill="none" stroke="midnightblue" d="M45.7159,-56.083C41.289,-48.6127 34.8367,-37.7244 29.3821,-28.5199"/>
<polygon fill="midnightblue" stroke="midnightblue" points="32.2949,-26.5697 24.1858,-19.7511 26.2729,-30.1383 32.2949,-26.5697"/>
</g>
<!-- Node3 -->
<g id="node3" class="node"><title>Node3</title>
<polygon fill="white" stroke="#bfbfbf" points="56.5,-0.5 56.5,-19.5 109.5,-19.5 109.5,-0.5 56.5,-0.5"/>
<text text-anchor="middle" x="83" y="-7.5" font-family="Helvetica,sans-Serif" font-size="10.00">engine.h</text>
</g>
<!-- Node1&#45;&gt;Node3 -->
<g id="edge2" class="edge"><title>Node1&#45;&gt;Node3</title>
<path fill="none" stroke="midnightblue" d="M56.2841,-56.083C60.711,-48.6127 67.1633,-37.7244 72.6179,-28.5199"/>
<polygon fill="midnightblue" stroke="midnightblue" points="75.7271,-30.1383 77.8142,-19.7511 69.7051,-26.5697 75.7271,-30.1383"/>
</g>
</g>
</svg>
