<?xml version="1.0" encoding="UTF-8" standalone="no"?>
<!DOCTYPE svg PUBLIC "-//W3C//DTD SVG 1.1//EN"
 "http://www.w3.org/Graphics/SVG/1.1/DTD/svg11.dtd">
<!-- Generated by graphviz version 2.36.0 (20140111.2315)
 -->
<!-- Title: src/game/main.cpp Pages: 1 -->
<svg width="110pt" height="84pt"
 viewBox="0.00 0.00 110.00 84.00" xmlns="http://www.w3.org/2000/svg" xmlns:xlink="http://www.w3.org/1999/xlink">
<g id="graph0" class="graph" transform="scale(1 1) rotate(0) translate(4 80)">
<title>src/game/main.cpp</title>
<polygon fill="white" stroke="none" points="-4,4 -4,-80 106,-80 106,4 -4,4"/>
<!-- Node1 -->
<g id="node1" class="node"><title>Node1</title>
<polygon fill="#bfbfbf" stroke="black" points="0,-56.5 0,-75.5 100,-75.5 100,-56.5 0,-56.5"/>
<text text-anchor="middle" x="50" y="-63.5" font-family="Helvetica,sans-Serif" font-size="10.00">src/game/main.cpp</text>
</g>
<!-- Node2 -->
<g id="node2" class="node"><title>Node2</title>
<polygon fill="white" stroke="#bfbfbf" points="2,-0.5 2,-19.5 40,-19.5 40,-0.5 2,-0.5"/>
<text text-anchor="middle" x="21" y="-7.5" font-family="Helvetica,sans-Serif" font-size="10.00">util.h</text>
</g>
<!-- Node1&#45;&gt;Node2 -->
<g id="edge1" class="edge"><title>Node1&#45;&gt;Node2</title>
<path fill="none" stroke="midnightblue" d="M45.2112,-56.083C41.2416,-48.6913 35.4749,-37.9533 30.5652,-28.8111"/>
<polygon fill="midnightblue" stroke="midnightblue" points="33.5145,-26.9051 25.6997,-19.7511 27.3475,-30.217 33.5145,-26.9051"/>
</g>
<!-- Node3 -->
<g id="node3" class="node"><title>Node3</title>
<polygon fill="white" stroke="#bfbfbf" points="58,-0.5 58,-19.5 102,-19.5 102,-0.5 58,-0.5"/>
<text text-anchor="middle" x="80" y="-7.5" font-family="Helvetica,sans-Serif" font-size="10.00">core.h</text>
</g>
<!-- Node1&#45;&gt;Node3 -->
<g id="edge2" class="edge"><title>Node1&#45;&gt;Node3</title>
<path fill="none" stroke="midnightblue" d="M54.9539,-56.083C59.1041,-48.6127 65.1531,-37.7244 70.2667,-28.5199"/>
<polygon fill="midnightblue" stroke="midnightblue" points="73.3414,-30.1924 75.1383,-19.7511 67.2223,-26.7929 73.3414,-30.1924"/>
</g>
</g>
</svg>
