<?xml version="1.0" encoding="UTF-8" standalone="no"?>
<!DOCTYPE svg PUBLIC "-//W3C//DTD SVG 1.1//EN"
 "http://www.w3.org/Graphics/SVG/1.1/DTD/svg11.dtd">
<!-- Generated by graphviz version 2.36.0 (20140111.2315)
 -->
<!-- Title: util::strcmp Pages: 1 -->
<svg width="224pt" height="66pt"
 viewBox="0.00 0.00 224.00 66.00" xmlns="http://www.w3.org/2000/svg" xmlns:xlink="http://www.w3.org/1999/xlink">
<g id="graph0" class="graph" transform="scale(1 1) rotate(0) translate(4 62)">
<title>util::strcmp</title>
<polygon fill="white" stroke="none" points="-4,4 -4,-62 220,-62 220,4 -4,4"/>
<!-- Node1 -->
<g id="node1" class="node"><title>Node1</title>
<polygon fill="#bfbfbf" stroke="black" points="0.5,-19.5 0.5,-38.5 65.5,-38.5 65.5,-19.5 0.5,-19.5"/>
<text text-anchor="middle" x="33" y="-26.5" font-family="Helvetica,sans-Serif" font-size="10.00">util::strcmp</text>
</g>
<!-- Node2 -->
<g id="node2" class="node"><title>Node2</title>
<g id="a_node2"><a xlink:href="classutil_1_1String.html#a34dba4b7700521392046a9d60875705e" target="_top" xlink:title="Case sensitive comparison operator, left side. ">
<polygon fill="white" stroke="black" points="102,-38.5 102,-57.5 216,-57.5 216,-38.5 102,-38.5"/>
<text text-anchor="middle" x="159" y="-45.5" font-family="Helvetica,sans-Serif" font-size="10.00">util::String::operator==</text>
</a>
</g>
</g>
<!-- Node1&#45;&gt;Node2 -->
<g id="edge1" class="edge"><title>Node1&#45;&gt;Node2</title>
<path fill="none" stroke="midnightblue" d="M75.5737,-35.3702C84.0124,-36.6632 93.0194,-38.0433 101.866,-39.3988"/>
<polygon fill="midnightblue" stroke="midnightblue" points="76.026,-31.8987 65.6113,-33.8437 74.9658,-38.818 76.026,-31.8987"/>
</g>
<!-- Node3 -->
<g id="node3" class="node"><title>Node3</title>
<g id="a_node3"><a xlink:href="namespaceutil.html#ab9d90b61108fc1f179d980179f10cd83" target="_top" xlink:title="util::operator==">
<polygon fill="white" stroke="black" points="117.5,-0.5 117.5,-19.5 200.5,-19.5 200.5,-0.5 117.5,-0.5"/>
<text text-anchor="middle" x="159" y="-7.5" font-family="Helvetica,sans-Serif" font-size="10.00">util::operator==</text>
</a>
</g>
</g>
<!-- Node1&#45;&gt;Node3 -->
<g id="edge2" class="edge"><title>Node1&#45;&gt;Node3</title>
<path fill="none" stroke="midnightblue" d="M75.5195,-22.6381C88.9053,-20.5871 103.726,-18.3162 117.069,-16.2717"/>
<polygon fill="midnightblue" stroke="midnightblue" points="74.9658,-19.182 65.6113,-24.1563 76.026,-26.1013 74.9658,-19.182"/>
</g>
</g>
</svg>
