<?xml version="1.0" encoding="UTF-8" standalone="no"?>
<!DOCTYPE svg PUBLIC "-//W3C//DTD SVG 1.1//EN"
 "http://www.w3.org/Graphics/SVG/1.1/DTD/svg11.dtd">
<!-- Generated by graphviz version 2.36.0 (20140111.2315)
 -->
<!-- Title: util::operator+ Pages: 1 -->
<svg width="592pt" height="66pt"
 viewBox="0.00 0.00 592.00 66.00" xmlns="http://www.w3.org/2000/svg" xmlns:xlink="http://www.w3.org/1999/xlink">
<g id="graph0" class="graph" transform="scale(1 1) rotate(0) translate(4 62)">
<title>util::operator+</title>
<polygon fill="white" stroke="none" points="-4,4 -4,-62 588,-62 588,4 -4,4"/>
<!-- Node1 -->
<g id="node1" class="node"><title>Node1</title>
<polygon fill="#bfbfbf" stroke="black" points="0.5,-19.5 0.5,-38.5 77.5,-38.5 77.5,-19.5 0.5,-19.5"/>
<text text-anchor="middle" x="39" y="-26.5" font-family="Helvetica,sans-Serif" font-size="10.00">util::operator+</text>
</g>
<!-- Node2 -->
<g id="node2" class="node"><title>Node2</title>
<g id="a_node2"><a xlink:href="classutil_1_1String.html#af6e4eac45ea96302e576fe299bc44167" target="_top" xlink:title="Appends String. ">
<polygon fill="white" stroke="black" points="114,-19.5 114,-38.5 214,-38.5 214,-19.5 114,-19.5"/>
<text text-anchor="middle" x="164" y="-26.5" font-family="Helvetica,sans-Serif" font-size="10.00">util::String::Append</text>
</a>
</g>
</g>
<!-- Node1&#45;&gt;Node2 -->
<g id="edge1" class="edge"><title>Node1&#45;&gt;Node2</title>
<path fill="none" stroke="midnightblue" d="M77.5724,-29C85.888,-29 94.895,-29 103.836,-29"/>
<polygon fill="midnightblue" stroke="midnightblue" points="103.862,-32.5001 113.862,-29 103.862,-25.5001 103.862,-32.5001"/>
</g>
<!-- Node3 -->
<g id="node3" class="node"><title>Node3</title>
<g id="a_node3"><a xlink:href="classutil_1_1String.html#a84b25efb436ed6c47331530db7a68dad" target="_top" xlink:title="Returns length of String. ">
<polygon fill="white" stroke="black" points="252,-38.5 252,-57.5 348,-57.5 348,-38.5 252,-38.5"/>
<text text-anchor="middle" x="300" y="-45.5" font-family="Helvetica,sans-Serif" font-size="10.00">util::String::Length</text>
</a>
</g>
</g>
<!-- Node2&#45;&gt;Node3 -->
<g id="edge2" class="edge"><title>Node2&#45;&gt;Node3</title>
<path fill="none" stroke="midnightblue" d="M214.136,-35.967C223.036,-37.229 232.39,-38.5553 241.505,-39.8477"/>
<polygon fill="midnightblue" stroke="midnightblue" points="241.264,-43.3485 251.656,-41.2871 242.247,-36.4178 241.264,-43.3485"/>
</g>
<!-- Node4 -->
<g id="node4" class="node"><title>Node4</title>
<g id="a_node4"><a xlink:href="classutil_1_1String.html#ad55e73410afb6a799ec70ab60a309a2b" target="_top" xlink:title="Ensures there is enough memory. ">
<polygon fill="white" stroke="black" points="250.5,-0.5 250.5,-19.5 349.5,-19.5 349.5,-0.5 250.5,-0.5"/>
<text text-anchor="middle" x="300" y="-7.5" font-family="Helvetica,sans-Serif" font-size="10.00">util::String::Enalloc</text>
</a>
</g>
</g>
<!-- Node2&#45;&gt;Node4 -->
<g id="edge3" class="edge"><title>Node2&#45;&gt;Node4</title>
<path fill="none" stroke="midnightblue" d="M214.136,-22.033C222.618,-20.8302 231.513,-19.5691 240.219,-18.3346"/>
<polygon fill="midnightblue" stroke="midnightblue" points="240.908,-21.772 250.318,-16.9027 239.926,-14.8413 240.908,-21.772"/>
</g>
<!-- Node5 -->
<g id="node5" class="node"><title>Node5</title>
<g id="a_node5"><a xlink:href="classutil_1_1String.html#a5208e787bb3b5608eebf0cb2eb94a29a" target="_top" xlink:title="Reallocates buffer memory. ">
<polygon fill="white" stroke="black" points="386,-0.5 386,-19.5 486,-19.5 486,-0.5 386,-0.5"/>
<text text-anchor="middle" x="436" y="-7.5" font-family="Helvetica,sans-Serif" font-size="10.00">util::String::Realloc</text>
</a>
</g>
</g>
<!-- Node4&#45;&gt;Node5 -->
<g id="edge4" class="edge"><title>Node4&#45;&gt;Node5</title>
<path fill="none" stroke="midnightblue" d="M349.756,-10C358.147,-10 366.95,-10 375.584,-10"/>
<polygon fill="midnightblue" stroke="midnightblue" points="375.606,-13.5001 385.606,-10 375.606,-6.5001 375.606,-13.5001"/>
</g>
<!-- Node6 -->
<g id="node6" class="node"><title>Node6</title>
<g id="a_node6"><a xlink:href="namespaceutil.html#ab5b1c6f07bee20ecae968d0523857c0a" target="_top" xlink:title="Replacement for strcpy. ">
<polygon fill="white" stroke="black" points="522,-0.5 522,-19.5 584,-19.5 584,-0.5 522,-0.5"/>
<text text-anchor="middle" x="553" y="-7.5" font-family="Helvetica,sans-Serif" font-size="10.00">util::strcpy</text>
</a>
</g>
</g>
<!-- Node5&#45;&gt;Node6 -->
<g id="edge5" class="edge"><title>Node5&#45;&gt;Node6</title>
<path fill="none" stroke="midnightblue" d="M486.104,-10C494.603,-10 503.352,-10 511.587,-10"/>
<polygon fill="midnightblue" stroke="midnightblue" points="511.685,-13.5001 521.685,-10 511.685,-6.5001 511.685,-13.5001"/>
</g>
</g>
</svg>
