<?xml version="1.0" encoding="UTF-8" standalone="no"?>
<!DOCTYPE svg PUBLIC "-//W3C//DTD SVG 1.1//EN"
 "http://www.w3.org/Graphics/SVG/1.1/DTD/svg11.dtd">
<!-- Generated by graphviz version 2.36.0 (20140111.2315)
 -->
<!-- Title: util::strcpy Pages: 1 -->
<svg width="470pt" height="47pt"
 viewBox="0.00 0.00 470.00 47.00" xmlns="http://www.w3.org/2000/svg" xmlns:xlink="http://www.w3.org/1999/xlink">
<g id="graph0" class="graph" transform="scale(1 1) rotate(0) translate(4 43)">
<title>util::strcpy</title>
<polygon fill="white" stroke="none" points="-4,4 -4,-43 466,-43 466,4 -4,4"/>
<!-- Node1 -->
<g id="node1" class="node"><title>Node1</title>
<polygon fill="#bfbfbf" stroke="black" points="0,-19.5 0,-38.5 62,-38.5 62,-19.5 0,-19.5"/>
<text text-anchor="middle" x="31" y="-26.5" font-family="Helvetica,sans-Serif" font-size="10.00">util::strcpy</text>
</g>
<!-- Node2 -->
<g id="node2" class="node"><title>Node2</title>
<g id="a_node2"><a xlink:href="classutil_1_1String.html#a8ff64e5634b50aee3727b1a1f2c9f4df" target="_top" xlink:title="Copy constructor. ">
<polygon fill="white" stroke="black" points="370,-19.5 370,-38.5 462,-38.5 462,-19.5 370,-19.5"/>
<text text-anchor="middle" x="416" y="-26.5" font-family="Helvetica,sans-Serif" font-size="10.00">util::String::String</text>
</a>
</g>
</g>
<!-- Node1&#45;&gt;Node2 -->
<g id="edge1" class="edge"><title>Node1&#45;&gt;Node2</title>
<path fill="none" stroke="midnightblue" d="M72.0704,-29C143.947,-29 294.309,-29 369.768,-29"/>
<polygon fill="midnightblue" stroke="midnightblue" points="72.0534,-25.5001 62.0534,-29 72.0533,-32.5001 72.0534,-25.5001"/>
</g>
<!-- Node3 -->
<g id="node3" class="node"><title>Node3</title>
<g id="a_node3"><a xlink:href="classutil_1_1String.html#ae1530f1c2413c3fca5a293d7d739d27e" target="_top" xlink:title="Reallocates buffer memory. ">
<polygon fill="white" stroke="black" points="98,-0.5 98,-19.5 198,-19.5 198,-0.5 98,-0.5"/>
<text text-anchor="middle" x="148" y="-7.5" font-family="Helvetica,sans-Serif" font-size="10.00">util::String::Realloc</text>
</a>
</g>
</g>
<!-- Node1&#45;&gt;Node3 -->
<g id="edge2" class="edge"><title>Node1&#45;&gt;Node3</title>
<path fill="none" stroke="midnightblue" d="M72.3285,-22.337C80.5779,-20.9741 89.3465,-19.5254 97.8648,-18.118"/>
<polygon fill="midnightblue" stroke="midnightblue" points="71.5106,-18.9246 62.2149,-24.008 72.6517,-25.831 71.5106,-18.9246"/>
</g>
<!-- Node4 -->
<g id="node4" class="node"><title>Node4</title>
<g id="a_node4"><a xlink:href="classutil_1_1String.html#a41dbcd32aba6022654420f1ca8634e52" target="_top" xlink:title="Ensures there is enough memory. ">
<polygon fill="white" stroke="black" points="234.5,-0.5 234.5,-19.5 333.5,-19.5 333.5,-0.5 234.5,-0.5"/>
<text text-anchor="middle" x="284" y="-7.5" font-family="Helvetica,sans-Serif" font-size="10.00">util::String::Enalloc</text>
</a>
</g>
</g>
<!-- Node3&#45;&gt;Node4 -->
<g id="edge3" class="edge"><title>Node3&#45;&gt;Node4</title>
<path fill="none" stroke="midnightblue" d="M208.247,-10C216.96,-10 225.85,-10 234.318,-10"/>
<polygon fill="midnightblue" stroke="midnightblue" points="208.136,-6.5001 198.136,-10 208.136,-13.5001 208.136,-6.5001"/>
</g>
<!-- Node4&#45;&gt;Node2 -->
<g id="edge4" class="edge"><title>Node4&#45;&gt;Node2</title>
<path fill="none" stroke="midnightblue" d="M343.89,-18.607C352.595,-19.8792 361.447,-21.173 369.815,-22.396"/>
<polygon fill="midnightblue" stroke="midnightblue" points="344.178,-15.112 333.777,-17.129 343.166,-22.0384 344.178,-15.112"/>
</g>
</g>
</svg>
