<?xml version="1.0" encoding="UTF-8" standalone="no"?>
<!DOCTYPE svg PUBLIC "-//W3C//DTD SVG 1.1//EN"
 "http://www.w3.org/Graphics/SVG/1.1/DTD/svg11.dtd">
<!-- Generated by graphviz version 2.36.0 (20140111.2315)
 -->
<!-- Title: util::strcpy Pages: 1 -->
<svg width="644pt" height="109pt"
 viewBox="0.00 0.00 644.00 109.00" xmlns="http://www.w3.org/2000/svg" xmlns:xlink="http://www.w3.org/1999/xlink">
<g id="graph0" class="graph" transform="scale(1 1) rotate(0) translate(4 105)">
<title>util::strcpy</title>
<polygon fill="white" stroke="none" points="-4,4 -4,-105 640,-105 640,4 -4,4"/>
<!-- Node1 -->
<g id="node1" class="node"><title>Node1</title>
<polygon fill="#bfbfbf" stroke="black" points="0,-52.5 0,-71.5 62,-71.5 62,-52.5 0,-52.5"/>
<text text-anchor="middle" x="31" y="-59.5" font-family="Helvetica,sans-Serif" font-size="10.00">util::strcpy</text>
</g>
<!-- Node2 -->
<g id="node2" class="node"><title>Node2</title>
<g id="a_node2"><a xlink:href="classutil_1_1String.html#aa1088c473f0e2a7f3811199339e9aaf9" target="_top" xlink:title="Copy constructor. ">
<polygon fill="white" stroke="black" points="386,-81.5 386,-100.5 478,-100.5 478,-81.5 386,-81.5"/>
<text text-anchor="middle" x="432" y="-88.5" font-family="Helvetica,sans-Serif" font-size="10.00">util::String::String</text>
</a>
</g>
</g>
<!-- Node1&#45;&gt;Node2 -->
<g id="edge1" class="edge"><title>Node1&#45;&gt;Node2</title>
<path fill="none" stroke="midnightblue" d="M69.0576,-74.4263C78.4012,-77.0705 88.4836,-79.5115 98,-81 200.002,-96.9548 321.656,-95.5219 385.966,-93.1921"/>
<polygon fill="midnightblue" stroke="midnightblue" points="69.8535,-71.0115 59.2706,-71.5129 67.8563,-77.7206 69.8535,-71.0115"/>
</g>
<!-- Node3 -->
<g id="node3" class="node"><title>Node3</title>
<g id="a_node3"><a xlink:href="classutil_1_1String.html#aae8403dd8d1c60806d5d0696b1dfa0c1" target="_top" xlink:title="Assignment operator. ">
<polygon fill="white" stroke="black" points="98,-52.5 98,-71.5 206,-71.5 206,-52.5 98,-52.5"/>
<text text-anchor="middle" x="152" y="-59.5" font-family="Helvetica,sans-Serif" font-size="10.00">util::String::operator=</text>
</a>
</g>
</g>
<!-- Node1&#45;&gt;Node3 -->
<g id="edge2" class="edge"><title>Node1&#45;&gt;Node3</title>
<path fill="none" stroke="midnightblue" d="M72.1271,-62C80.3789,-62 89.1888,-62 97.8193,-62"/>
<polygon fill="midnightblue" stroke="midnightblue" points="72.0288,-58.5001 62.0287,-62 72.0287,-65.5001 72.0288,-58.5001"/>
</g>
<!-- Node4 -->
<g id="node4" class="node"><title>Node4</title>
<g id="a_node4"><a xlink:href="classutil_1_1String.html#a5208e787bb3b5608eebf0cb2eb94a29a" target="_top" xlink:title="Reallocates buffer memory. ">
<polygon fill="white" stroke="black" points="102,-14.5 102,-33.5 202,-33.5 202,-14.5 102,-14.5"/>
<text text-anchor="middle" x="152" y="-21.5" font-family="Helvetica,sans-Serif" font-size="10.00">util::String::Realloc</text>
</a>
</g>
</g>
<!-- Node1&#45;&gt;Node4 -->
<g id="edge3" class="edge"><title>Node1&#45;&gt;Node4</title>
<path fill="none" stroke="midnightblue" d="M71.7098,-49.3196C87.7886,-44.1852 106.043,-38.3559 120.981,-33.5859"/>
<polygon fill="midnightblue" stroke="midnightblue" points="70.4901,-46.0348 62.0287,-52.411 72.6195,-52.7031 70.4901,-46.0348"/>
</g>
<!-- Node5 -->
<g id="node5" class="node"><title>Node5</title>
<g id="a_node5"><a xlink:href="classutil_1_1String.html#ad55e73410afb6a799ec70ab60a309a2b" target="_top" xlink:title="Ensures there is enough memory. ">
<polygon fill="white" stroke="black" points="242.5,-33.5 242.5,-52.5 341.5,-52.5 341.5,-33.5 242.5,-33.5"/>
<text text-anchor="middle" x="292" y="-40.5" font-family="Helvetica,sans-Serif" font-size="10.00">util::String::Enalloc</text>
</a>
</g>
</g>
<!-- Node4&#45;&gt;Node5 -->
<g id="edge4" class="edge"><title>Node4&#45;&gt;Node5</title>
<path fill="none" stroke="midnightblue" d="M211.965,-32.1184C222.018,-33.5025 232.361,-34.9265 242.116,-36.2696"/>
<polygon fill="midnightblue" stroke="midnightblue" points="212.426,-28.6489 202.042,-30.7522 211.471,-35.5835 212.426,-28.6489"/>
</g>
<!-- Node5&#45;&gt;Node2 -->
<g id="edge5" class="edge"><title>Node5&#45;&gt;Node2</title>
<path fill="none" stroke="midnightblue" d="M330.079,-55.897C353.18,-63.9323 382.405,-74.0975 403.453,-81.4185"/>
<polygon fill="midnightblue" stroke="midnightblue" points="331.19,-52.5777 320.595,-52.5982 328.89,-59.1892 331.19,-52.5777"/>
</g>
<!-- Node6 -->
<g id="node6" class="node"><title>Node6</title>
<g id="a_node6"><a xlink:href="classutil_1_1String.html#af6e4eac45ea96302e576fe299bc44167" target="_top" xlink:title="Appends String. ">
<polygon fill="white" stroke="black" points="382,-38.5 382,-57.5 482,-57.5 482,-38.5 382,-38.5"/>
<text text-anchor="middle" x="432" y="-45.5" font-family="Helvetica,sans-Serif" font-size="10.00">util::String::Append</text>
</a>
</g>
</g>
<!-- Node5&#45;&gt;Node6 -->
<g id="edge6" class="edge"><title>Node5&#45;&gt;Node6</title>
<path fill="none" stroke="midnightblue" d="M351.913,-45.1345C361.892,-45.4961 372.159,-45.8681 381.854,-46.2194"/>
<polygon fill="midnightblue" stroke="midnightblue" points="351.774,-41.6273 341.654,-44.7628 351.52,-48.6227 351.774,-41.6273"/>
</g>
<!-- Node9 -->
<g id="node9" class="node"><title>Node9</title>
<g id="a_node9"><a xlink:href="classutil_1_1String.html#adad563cff8a9d78b8a2854c644900e44" target="_top" xlink:title="Assignment operator. ">
<polygon fill="white" stroke="black" points="378,-0.5 378,-19.5 486,-19.5 486,-0.5 378,-0.5"/>
<text text-anchor="middle" x="432" y="-7.5" font-family="Helvetica,sans-Serif" font-size="10.00">util::String::operator=</text>
</a>
</g>
</g>
<!-- Node5&#45;&gt;Node9 -->
<g id="edge9" class="edge"><title>Node5&#45;&gt;Node9</title>
<path fill="none" stroke="midnightblue" d="M343.07,-31.0268C358.897,-27.242 376.165,-23.1128 391.174,-19.5235"/>
<polygon fill="midnightblue" stroke="midnightblue" points="341.827,-27.7252 332.915,-33.455 343.455,-34.5333 341.827,-27.7252"/>
</g>
<!-- Node7 -->
<g id="node7" class="node"><title>Node7</title>
<g id="a_node7"><a xlink:href="classutil_1_1String.html#ae994dd6990d30ab95e288cb9664385c2" target="_top" xlink:title="Concatenation operator. ">
<polygon fill="white" stroke="black" points="522,-57.5 522,-76.5 636,-76.5 636,-57.5 522,-57.5"/>
<text text-anchor="middle" x="579" y="-64.5" font-family="Helvetica,sans-Serif" font-size="10.00">util::String::operator+=</text>
</a>
</g>
</g>
<!-- Node6&#45;&gt;Node7 -->
<g id="edge7" class="edge"><title>Node6&#45;&gt;Node7</title>
<path fill="none" stroke="midnightblue" d="M492.19,-55.7559C502.029,-57.0452 512.207,-58.3789 521.965,-59.6575"/>
<polygon fill="midnightblue" stroke="midnightblue" points="492.46,-52.2615 482.09,-54.4325 491.551,-59.2022 492.46,-52.2615"/>
</g>
<!-- Node8 -->
<g id="node8" class="node"><title>Node8</title>
<g id="a_node8"><a xlink:href="namespaceutil.html#ac5344b02cd5f4e956a3a8a67e02dc5b8" target="_top" xlink:title="util::operator+">
<polygon fill="white" stroke="black" points="540.5,-19.5 540.5,-38.5 617.5,-38.5 617.5,-19.5 540.5,-19.5"/>
<text text-anchor="middle" x="579" y="-26.5" font-family="Helvetica,sans-Serif" font-size="10.00">util::operator+</text>
</a>
</g>
</g>
<!-- Node6&#45;&gt;Node8 -->
<g id="edge8" class="edge"><title>Node6&#45;&gt;Node8</title>
<path fill="none" stroke="midnightblue" d="M492.102,-40.2556C508.426,-38.1166 525.689,-35.8546 540.423,-33.9239"/>
<polygon fill="midnightblue" stroke="midnightblue" points="491.551,-36.7978 482.09,-41.5675 492.46,-43.7385 491.551,-36.7978"/>
</g>
</g>
</svg>
