<?xml version="1.0" encoding="UTF-8" standalone="no"?>
<!DOCTYPE svg PUBLIC "-//W3C//DTD SVG 1.1//EN"
 "http://www.w3.org/Graphics/SVG/1.1/DTD/svg11.dtd">
<!-- Generated by graphviz version 2.36.0 (20140111.2315)
 -->
<!-- Title: util::strlen Pages: 1 -->
<svg width="212pt" height="104pt"
 viewBox="0.00 0.00 212.00 104.00" xmlns="http://www.w3.org/2000/svg" xmlns:xlink="http://www.w3.org/1999/xlink">
<g id="graph0" class="graph" transform="scale(1 1) rotate(0) translate(4 100)">
<title>util::strlen</title>
<polygon fill="white" stroke="none" points="-4,4 -4,-100 208,-100 208,4 -4,4"/>
<!-- Node1 -->
<g id="node1" class="node"><title>Node1</title>
<polygon fill="#bfbfbf" stroke="black" points="0.5,-38.5 0.5,-57.5 59.5,-57.5 59.5,-38.5 0.5,-38.5"/>
<text text-anchor="middle" x="30" y="-45.5" font-family="Helvetica,sans-Serif" font-size="10.00">util::strlen</text>
</g>
<!-- Node2 -->
<g id="node2" class="node"><title>Node2</title>
<g id="a_node2"><a xlink:href="classutil_1_1String.html#a44470629fa7114e8abacec2852116306" target="_top" xlink:title="Copy constructor. ">
<polygon fill="white" stroke="black" points="104,-76.5 104,-95.5 196,-95.5 196,-76.5 104,-76.5"/>
<text text-anchor="middle" x="150" y="-83.5" font-family="Helvetica,sans-Serif" font-size="10.00">util::String::String</text>
</a>
</g>
</g>
<!-- Node1&#45;&gt;Node2 -->
<g id="edge1" class="edge"><title>Node1&#45;&gt;Node2</title>
<path fill="none" stroke="midnightblue" d="M69.3355,-60.3453C85.6115,-65.5867 104.289,-71.6015 119.466,-76.4891"/>
<polygon fill="midnightblue" stroke="midnightblue" points="70.156,-56.9326 59.5645,-57.1987 68.0102,-63.5956 70.156,-56.9326"/>
</g>
<!-- Node3 -->
<g id="node3" class="node"><title>Node3</title>
<g id="a_node3"><a xlink:href="classutil_1_1String.html#a6ced3495a9a2138a0083ffcd96be6157" target="_top" xlink:title="Appends char array. ">
<polygon fill="white" stroke="black" points="100,-38.5 100,-57.5 200,-57.5 200,-38.5 100,-38.5"/>
<text text-anchor="middle" x="150" y="-45.5" font-family="Helvetica,sans-Serif" font-size="10.00">util::String::Append</text>
</a>
</g>
</g>
<!-- Node1&#45;&gt;Node3 -->
<g id="edge2" class="edge"><title>Node1&#45;&gt;Node3</title>
<path fill="none" stroke="midnightblue" d="M69.6822,-48C79.3607,-48 89.8701,-48 99.9772,-48"/>
<polygon fill="midnightblue" stroke="midnightblue" points="69.5645,-44.5001 59.5645,-48 69.5645,-51.5001 69.5645,-44.5001"/>
</g>
<!-- Node4 -->
<g id="node4" class="node"><title>Node4</title>
<g id="a_node4"><a xlink:href="classutil_1_1String.html#aae8403dd8d1c60806d5d0696b1dfa0c1" target="_top" xlink:title="Assignment operator. ">
<polygon fill="white" stroke="black" points="96,-0.5 96,-19.5 204,-19.5 204,-0.5 96,-0.5"/>
<text text-anchor="middle" x="150" y="-7.5" font-family="Helvetica,sans-Serif" font-size="10.00">util::String::operator=</text>
</a>
</g>
</g>
<!-- Node1&#45;&gt;Node4 -->
<g id="edge3" class="edge"><title>Node1&#45;&gt;Node4</title>
<path fill="none" stroke="midnightblue" d="M69.3355,-35.6547C85.6115,-30.4133 104.289,-24.3985 119.466,-19.5109"/>
<polygon fill="midnightblue" stroke="midnightblue" points="68.0102,-32.4044 59.5645,-38.8013 70.156,-39.0674 68.0102,-32.4044"/>
</g>
</g>
</svg>
