<?xml version="1.0" encoding="UTF-8" standalone="no"?>
<!DOCTYPE svg PUBLIC "-//W3C//DTD SVG 1.1//EN"
 "http://www.w3.org/Graphics/SVG/1.1/DTD/svg11.dtd">
<!-- Generated by graphviz version 2.36.0 (20140111.2315)
 -->
<!-- Title: util::strlen Pages: 1 -->
<svg width="212pt" height="66pt"
 viewBox="0.00 0.00 212.00 66.00" xmlns="http://www.w3.org/2000/svg" xmlns:xlink="http://www.w3.org/1999/xlink">
<g id="graph0" class="graph" transform="scale(1 1) rotate(0) translate(4 62)">
<title>util::strlen</title>
<polygon fill="white" stroke="none" points="-4,4 -4,-62 208,-62 208,4 -4,4"/>
<!-- Node1 -->
<g id="node1" class="node"><title>Node1</title>
<polygon fill="#bfbfbf" stroke="black" points="0.5,-19.5 0.5,-38.5 59.5,-38.5 59.5,-19.5 0.5,-19.5"/>
<text text-anchor="middle" x="30" y="-26.5" font-family="Helvetica,sans-Serif" font-size="10.00">util::strlen</text>
</g>
<!-- Node2 -->
<g id="node2" class="node"><title>Node2</title>
<g id="a_node2"><a xlink:href="classutil_1_1String.html#a3fba40cf6cb11735ffddc355a5ff68f4" target="_top" xlink:title="Copy constructor. ">
<polygon fill="white" stroke="black" points="104,-38.5 104,-57.5 196,-57.5 196,-38.5 104,-38.5"/>
<text text-anchor="middle" x="150" y="-45.5" font-family="Helvetica,sans-Serif" font-size="10.00">util::String::String</text>
</a>
</g>
</g>
<!-- Node1&#45;&gt;Node2 -->
<g id="edge1" class="edge"><title>Node1&#45;&gt;Node2</title>
<path fill="none" stroke="midnightblue" d="M69.6163,-35.2179C80.4971,-36.9699 92.4326,-38.8917 103.668,-40.7008"/>
<polygon fill="midnightblue" stroke="midnightblue" points="69.9938,-31.7337 59.5645,-33.5994 68.8809,-38.6446 69.9938,-31.7337"/>
</g>
<!-- Node3 -->
<g id="node3" class="node"><title>Node3</title>
<g id="a_node3"><a xlink:href="classutil_1_1String.html#a8fa952da445d26a2b89370032799f53b" target="_top" xlink:title="Assigns value from char array. ">
<polygon fill="white" stroke="black" points="96,-0.5 96,-19.5 204,-19.5 204,-0.5 96,-0.5"/>
<text text-anchor="middle" x="150" y="-7.5" font-family="Helvetica,sans-Serif" font-size="10.00">util::String::operator=</text>
</a>
</g>
</g>
<!-- Node1&#45;&gt;Node3 -->
<g id="edge2" class="edge"><title>Node1&#45;&gt;Node3</title>
<path fill="none" stroke="midnightblue" d="M69.4533,-22.8084C77.8639,-21.4541 86.9111,-19.9974 95.7823,-18.569"/>
<polygon fill="midnightblue" stroke="midnightblue" points="68.8809,-19.3554 59.5645,-24.4006 69.9938,-26.2663 68.8809,-19.3554"/>
</g>
</g>
</svg>
