<?xml version="1.0" encoding="UTF-8" standalone="no"?>
<!DOCTYPE svg PUBLIC "-//W3C//DTD SVG 1.1//EN"
 "http://www.w3.org/Graphics/SVG/1.1/DTD/svg11.dtd">
<!-- Generated by graphviz version 2.36.0 (20140111.2315)
 -->
<!-- Title: util::strcpy Pages: 1 -->
<svg width="494pt" height="85pt"
 viewBox="0.00 0.00 494.00 85.00" xmlns="http://www.w3.org/2000/svg" xmlns:xlink="http://www.w3.org/1999/xlink">
<g id="graph0" class="graph" transform="scale(1 1) rotate(0) translate(4 81)">
<title>util::strcpy</title>
<polygon fill="white" stroke="none" points="-4,4 -4,-81 490,-81 490,4 -4,4"/>
<!-- Node1 -->
<g id="node1" class="node"><title>Node1</title>
<polygon fill="#bfbfbf" stroke="black" points="0,-38.5 0,-57.5 62,-57.5 62,-38.5 0,-38.5"/>
<text text-anchor="middle" x="31" y="-45.5" font-family="Helvetica,sans-Serif" font-size="10.00">util::strcpy</text>
</g>
<!-- Node2 -->
<g id="node2" class="node"><title>Node2</title>
<g id="a_node2"><a xlink:href="classutil_1_1String.html#abe3ad48188e112620c1eb8414a4a071e" target="_top" xlink:title="Copy constructor from String. ">
<polygon fill="white" stroke="black" points="386,-57.5 386,-76.5 478,-76.5 478,-57.5 386,-57.5"/>
<text text-anchor="middle" x="432" y="-64.5" font-family="Helvetica,sans-Serif" font-size="10.00">util::String::String</text>
</a>
</g>
</g>
<!-- Node1&#45;&gt;Node2 -->
<g id="edge1" class="edge"><title>Node1&#45;&gt;Node2</title>
<path fill="none" stroke="midnightblue" d="M68.2163,-60.397C77.7861,-63.1268 88.1856,-65.6154 98,-67 200.04,-81.3953 321.426,-75.744 385.746,-70.9835"/>
<polygon fill="midnightblue" stroke="midnightblue" points="69.1877,-57.0343 58.6032,-57.5012 67.1687,-63.7368 69.1877,-57.0343"/>
</g>
<!-- Node3 -->
<g id="node3" class="node"><title>Node3</title>
<g id="a_node3"><a xlink:href="classutil_1_1String.html#aae8403dd8d1c60806d5d0696b1dfa0c1" target="_top" xlink:title="Assignment operator from char array. ">
<polygon fill="white" stroke="black" points="98,-38.5 98,-57.5 206,-57.5 206,-38.5 98,-38.5"/>
<text text-anchor="middle" x="152" y="-45.5" font-family="Helvetica,sans-Serif" font-size="10.00">util::String::operator=</text>
</a>
</g>
</g>
<!-- Node1&#45;&gt;Node3 -->
<g id="edge2" class="edge"><title>Node1&#45;&gt;Node3</title>
<path fill="none" stroke="midnightblue" d="M72.1271,-48C80.3789,-48 89.1888,-48 97.8193,-48"/>
<polygon fill="midnightblue" stroke="midnightblue" points="72.0288,-44.5001 62.0287,-48 72.0287,-51.5001 72.0288,-44.5001"/>
</g>
<!-- Node4 -->
<g id="node4" class="node"><title>Node4</title>
<g id="a_node4"><a xlink:href="classutil_1_1String.html#a5208e787bb3b5608eebf0cb2eb94a29a" target="_top" xlink:title="Reallocates buffer memory. ">
<polygon fill="white" stroke="black" points="102,-0.5 102,-19.5 202,-19.5 202,-0.5 102,-0.5"/>
<text text-anchor="middle" x="152" y="-7.5" font-family="Helvetica,sans-Serif" font-size="10.00">util::String::Realloc</text>
</a>
</g>
</g>
<!-- Node1&#45;&gt;Node4 -->
<g id="edge3" class="edge"><title>Node1&#45;&gt;Node4</title>
<path fill="none" stroke="midnightblue" d="M71.7098,-35.3196C87.7886,-30.1852 106.043,-24.3559 120.981,-19.5859"/>
<polygon fill="midnightblue" stroke="midnightblue" points="70.4901,-32.0348 62.0287,-38.411 72.6195,-38.7031 70.4901,-32.0348"/>
</g>
<!-- Node5 -->
<g id="node5" class="node"><title>Node5</title>
<g id="a_node5"><a xlink:href="classutil_1_1String.html#ad55e73410afb6a799ec70ab60a309a2b" target="_top" xlink:title="Ensures there is enough memory. ">
<polygon fill="white" stroke="black" points="242.5,-10.5 242.5,-29.5 341.5,-29.5 341.5,-10.5 242.5,-10.5"/>
<text text-anchor="middle" x="292" y="-17.5" font-family="Helvetica,sans-Serif" font-size="10.00">util::String::Enalloc</text>
</a>
</g>
</g>
<!-- Node4&#45;&gt;Node5 -->
<g id="edge4" class="edge"><title>Node4&#45;&gt;Node5</title>
<path fill="none" stroke="midnightblue" d="M212.28,-14.2956C222.233,-15.0169 232.462,-15.7581 242.116,-16.4577"/>
<polygon fill="midnightblue" stroke="midnightblue" points="212.269,-10.7858 202.042,-13.5538 211.763,-17.7675 212.269,-10.7858"/>
</g>
<!-- Node5&#45;&gt;Node2 -->
<g id="edge5" class="edge"><title>Node5&#45;&gt;Node2</title>
<path fill="none" stroke="midnightblue" d="M330.591,-32.8028C353.315,-40.5419 381.816,-50.2488 402.642,-57.3417"/>
<polygon fill="midnightblue" stroke="midnightblue" points="331.521,-29.422 320.926,-29.5112 329.264,-36.0483 331.521,-29.422"/>
</g>
<!-- Node6 -->
<g id="node6" class="node"><title>Node6</title>
<g id="a_node6"><a xlink:href="classutil_1_1String.html#adad563cff8a9d78b8a2854c644900e44" target="_top" xlink:title="Assignment operator from String. ">
<polygon fill="white" stroke="black" points="378,-10.5 378,-29.5 486,-29.5 486,-10.5 378,-10.5"/>
<text text-anchor="middle" x="432" y="-17.5" font-family="Helvetica,sans-Serif" font-size="10.00">util::String::operator=</text>
</a>
</g>
</g>
<!-- Node5&#45;&gt;Node6 -->
<g id="edge6" class="edge"><title>Node5&#45;&gt;Node6</title>
<path fill="none" stroke="midnightblue" d="M351.924,-20C360.459,-20 369.205,-20 377.622,-20"/>
<polygon fill="midnightblue" stroke="midnightblue" points="351.654,-16.5001 341.654,-20 351.654,-23.5001 351.654,-16.5001"/>
</g>
</g>
</svg>
