<?xml version="1.0" encoding="UTF-8" standalone="no"?>
<!DOCTYPE svg PUBLIC "-//W3C//DTD SVG 1.1//EN"
 "http://www.w3.org/Graphics/SVG/1.1/DTD/svg11.dtd">
<!-- Generated by graphviz version 2.40.1 (20161225.0304)
 -->
<!-- Title: src/engine/Engine.cpp Pages: 1 -->
<svg width="133pt" height="84pt"
 viewBox="0.00 0.00 133.00 84.00" xmlns="http://www.w3.org/2000/svg" xmlns:xlink="http://www.w3.org/1999/xlink">
<g id="graph0" class="graph" transform="scale(1 1) rotate(0) translate(4 80)">
<title>src/engine/Engine.cpp</title>
<polygon fill="#ffffff" stroke="transparent" points="-4,4 -4,-80 129,-80 129,4 -4,4"/>
<!-- Node0 -->
<g id="node1" class="node">
<title>Node0</title>
<polygon fill="#bfbfbf" stroke="#000000" points="0,-56.5 0,-75.5 123,-75.5 123,-56.5 0,-56.5"/>
<text text-anchor="middle" x="61.5" y="-63.5" font-family="FreeSans" font-size="10.00" fill="#000000">src/engine/Engine.cpp</text>
</g>
<!-- Node1 -->
<g id="node2" class="node">
<title>Node1</title>
<polygon fill="#ffffff" stroke="#bfbfbf" points="7,-.5 7,-19.5 48,-19.5 48,-.5 7,-.5"/>
<text text-anchor="middle" x="27.5" y="-7.5" font-family="FreeSans" font-size="10.00" fill="#000000">util.h</text>
</g>
<!-- Node0&#45;&gt;Node1 -->
<g id="edge1" class="edge">
<title>Node0&#45;&gt;Node1</title>
<path fill="none" stroke="#191970" d="M55.5777,-56.2455C50.8973,-48.5367 44.2327,-37.5598 38.5711,-28.2348"/>
<polygon fill="#191970" stroke="#191970" points="41.5361,-26.3741 33.3545,-19.6427 35.5525,-30.007 41.5361,-26.3741"/>
</g>
<!-- Node2 -->
<g id="node3" class="node">
<title>Node2</title>
<polygon fill="#ffffff" stroke="#bfbfbf" points="66,-.5 66,-19.5 125,-19.5 125,-.5 66,-.5"/>
<text text-anchor="middle" x="95.5" y="-7.5" font-family="FreeSans" font-size="10.00" fill="#000000">engine.h</text>
</g>
<!-- Node0&#45;&gt;Node2 -->
<g id="edge2" class="edge">
<title>Node0&#45;&gt;Node2</title>
<path fill="none" stroke="#191970" d="M67.4223,-56.2455C72.1027,-48.5367 78.7673,-37.5598 84.4289,-28.2348"/>
<polygon fill="#191970" stroke="#191970" points="87.4475,-30.007 89.6455,-19.6427 81.4639,-26.3741 87.4475,-30.007"/>
</g>
</g>
</svg>
