<?xml version="1.0" encoding="UTF-8" standalone="no"?>
<!DOCTYPE svg PUBLIC "-//W3C//DTD SVG 1.1//EN"
 "http://www.w3.org/Graphics/SVG/1.1/DTD/svg11.dtd">
<!-- Generated by graphviz version 2.40.1 (20161225.0304)
 -->
<!-- Title: src/game/main.cpp Pages: 1 -->
<svg width="127pt" height="84pt"
 viewBox="0.00 0.00 126.50 84.00" xmlns="http://www.w3.org/2000/svg" xmlns:xlink="http://www.w3.org/1999/xlink">
<g id="graph0" class="graph" transform="scale(1 1) rotate(0) translate(4 80)">
<title>src/game/main.cpp</title>
<polygon fill="#ffffff" stroke="transparent" points="-4,4 -4,-80 122.5,-80 122.5,4 -4,4"/>
<!-- Node0 -->
<g id="node1" class="node">
<title>Node0</title>
<polygon fill="#bfbfbf" stroke="#000000" points="0,-56.5 0,-75.5 110,-75.5 110,-56.5 0,-56.5"/>
<text text-anchor="middle" x="55" y="-63.5" font-family="FreeSans" font-size="10.00" fill="#000000">src/game/main.cpp</text>
</g>
<!-- Node1 -->
<g id="node2" class="node">
<title>Node1</title>
<polygon fill="#ffffff" stroke="#bfbfbf" points=".5,-.5 .5,-19.5 41.5,-19.5 41.5,-.5 .5,-.5"/>
<text text-anchor="middle" x="21" y="-7.5" font-family="FreeSans" font-size="10.00" fill="#000000">util.h</text>
</g>
<!-- Node0&#45;&gt;Node1 -->
<g id="edge1" class="edge">
<title>Node0&#45;&gt;Node1</title>
<path fill="none" stroke="#191970" d="M49.0777,-56.2455C44.3973,-48.5367 37.7327,-37.5598 32.0711,-28.2348"/>
<polygon fill="#191970" stroke="#191970" points="35.0361,-26.3741 26.8545,-19.6427 29.0525,-30.007 35.0361,-26.3741"/>
</g>
<!-- Node2 -->
<g id="node3" class="node">
<title>Node2</title>
<polygon fill="#ffffff" stroke="#bfbfbf" points="59.5,-.5 59.5,-19.5 118.5,-19.5 118.5,-.5 59.5,-.5"/>
<text text-anchor="middle" x="89" y="-7.5" font-family="FreeSans" font-size="10.00" fill="#000000">engine.h</text>
</g>
<!-- Node0&#45;&gt;Node2 -->
<g id="edge2" class="edge">
<title>Node0&#45;&gt;Node2</title>
<path fill="none" stroke="#191970" d="M60.9223,-56.2455C65.6027,-48.5367 72.2673,-37.5598 77.9289,-28.2348"/>
<polygon fill="#191970" stroke="#191970" points="80.9475,-30.007 83.1455,-19.6427 74.9639,-26.3741 80.9475,-30.007"/>
</g>
</g>
</svg>
